<?xml version="1.0" encoding="UTF-8"?>
<svg version="1.1" xmlns="http://www.w3.org/2000/svg" width="2500" height="428">
<path d="M0 0 C14.52 0 29.04 0 44 0 C46.0625 6.06375 48.125 12.1275 50.25 18.375 C56.6993329 37.29807813 63.29572628 56.16586735 70 75 C70.59518433 73.28961548 70.59518433 73.28961548 71.20239258 71.54467773 C84.58861196 33.08550999 84.58861196 33.08550999 90.66659546 15.88162231 C91.13831074 14.54544454 91.6090368 13.20891711 92.07876587 11.87203979 C92.72417901 10.03609852 93.37368515 8.20159759 94.0234375 6.3671875 C94.38356934 5.34737793 94.74370117 4.32756836 95.11474609 3.27685547 C96 1 96 1 97 0 C99.95705321 -0.08868299 102.89065056 -0.11520296 105.84765625 -0.09765625 C107.17729652 -0.09553383 107.17729652 -0.09553383 108.53379822 -0.09336853 C111.37673254 -0.08775215 114.21958931 -0.07519691 117.0625 -0.0625 C118.98502491 -0.05748711 120.90755104 -0.05292384 122.83007812 -0.04882812 C127.55341549 -0.03777741 132.27669458 -0.02050183 137 0 C137 1.98 137 3.96 137 6 C133.37 6 129.74 6 126 6 C126 41.31 126 76.62 126 113 C129.63 113 133.26 113 137 113 C137 115.31 137 117.62 137 120 C121.16 120 105.32 120 89 120 C89 117.69 89 115.38 89 113 C92.63 113 96.26 113 100 113 C99.67 80.99 99.34 48.98 99 16 C90.29125462 40.37750591 90.29125462 40.37750591 81.796875 64.828125 C81.58633484 65.44286682 81.37579468 66.05760864 81.15887451 66.690979 C80.43886318 68.79385394 79.71938709 70.89691144 79 73 C78.71648682 73.82862549 78.43297363 74.65725098 78.14086914 75.51098633 C74.72537255 85.49425344 71.31349235 95.47875638 67.90625 105.46484375 C67.6420929 106.23862366 67.37793579 107.01240356 67.10577393 107.80963135 C65.7216801 111.86803027 64.35029269 115.93018884 63 120 C60.69 120 58.38 120 56 120 C55.64397705 118.98204346 55.2879541 117.96408691 54.92114258 116.9152832 C48.6531501 98.99484004 42.38338936 81.07500671 36.09359741 63.16220093 C35.5914884 61.73210736 35.08954203 60.30195666 34.58779907 58.87173462 C29.10083852 43.23286775 23.54683794 27.61770187 18 12 C17.95359392 23.72674377 17.91808875 35.45346558 17.89637566 47.18028259 C17.88595279 52.62591808 17.87182089 58.07149059 17.84912109 63.51708984 C17.8273394 68.77553931 17.81542011 74.03392832 17.81024551 79.29241943 C17.80655932 81.29539949 17.79936115 83.29837635 17.78853989 85.30133057 C17.77395423 88.11371937 17.77202502 90.92586052 17.77294922 93.73828125 C17.76575867 94.56043625 17.75856812 95.38259125 17.75115967 96.22966003 C17.76970943 101.46996696 18.54781714 105.9603595 20 111 C23.63 111.66 27.26 112.32 31 113 C31.04254356 114.99954746 31.04080783 117.00041636 31 119 C30 120 30 120 27.13256836 120.11352539 C25.88096924 120.10828857 24.62937012 120.10305176 23.33984375 120.09765625 C22.34314415 120.09553383 22.34314415 120.09553383 21.3263092 120.09336853 C19.19666101 120.08775518 17.06711661 120.07520054 14.9375 120.0625 C13.49674631 120.05748671 12.05599097 120.05292351 10.61523438 120.04882812 C7.07678898 120.03778145 3.53840461 120.02050792 0 120 C0 117.69 0 115.38 0 113 C4.455 112.01 4.455 112.01 9 111 C10.2604328 106.10801109 10.17384314 101.26869001 10.20532227 96.25268555 C10.21522186 95.27659836 10.22512146 94.30051117 10.23532104 93.29484558 C10.26685387 90.07549446 10.29166101 86.8561286 10.31640625 83.63671875 C10.33698287 81.40183636 10.35797953 79.16695779 10.37937927 76.93208313 C10.4345268 71.05491237 10.48396836 65.17770691 10.53222656 59.30047607 C10.58249503 53.30119749 10.63815319 47.30196919 10.69335938 41.30273438 C10.80085143 29.53519922 10.90231627 17.76762038 11 6 C7.37 6 3.74 6 0 6 C0 4.02 0 2.04 0 0 Z " fill="#BB0000" transform="translate(673,4)"/>
<path d="M0 0 C1.65 0 3.3 0 5 0 C5 11.88 5 23.76 5 36 C24.14 36 43.28 36 63 36 C63 38.31 63 40.62 63 43 C60.03 43 57.06 43 54 43 C54.4846875 44.01835938 54.969375 45.03671875 55.46875 46.0859375 C60.47915966 56.65240757 65.2924812 67.29540273 70 78 C74.0072682 73.10602642 75.88012222 67.32604662 78.1875 61.5 C78.65091797 60.35917969 79.11433594 59.21835938 79.59179688 58.04296875 C80.02943359 56.94597656 80.46707031 55.84898438 80.91796875 54.71875 C81.31781982 53.71779297 81.7176709 52.71683594 82.12963867 51.68554688 C83.20553585 48.83631871 83.20553585 48.83631871 83 45 C80.03 44.34 77.06 43.68 74 43 C72.875 38.25 72.875 38.25 74 36 C83.24 36 92.48 36 102 36 C102 38.31 102 40.62 102 43 C100.4221875 43.2475 100.4221875 43.2475 98.8125 43.5 C94.5280364 44.72509112 93.37764989 47.07176685 91.20275879 50.77050781 C89.38411988 54.14162535 87.85290702 57.58699648 86.390625 61.125 C85.90428085 62.27749741 85.90428085 62.27749741 85.40811157 63.45327759 C84.71170233 65.10601374 84.01843704 66.76007761 83.32806396 68.41534424 C82.23039267 71.04700852 81.12432445 73.67500428 80.01611328 76.30224609 C78.4615033 79.99014231 76.91030932 83.67944345 75.36230469 87.37011719 C71.90934657 95.60178958 68.44335551 103.82789859 64.96374512 112.04833984 C63.90444937 114.55530414 62.85094524 117.06464424 61.79785156 119.57421875 C49.13049866 149.62765995 49.13049866 149.62765995 42 153 C37.2906151 154.30858514 32.79359913 154.59293404 28.125 153 C24.27101882 150.53345205 22.2971616 148.40865379 21 144 C20.59032756 139.11737335 21.2554499 135.97205151 24.25 132.0625 C29.87056253 127.8470781 29.87056253 127.8470781 34.17578125 128.15625 C38.3129655 128.86045157 40.4764969 129.4764969 43.5 132.5 C45 135 45 135 46 137 C47.77765359 133.37592392 49.48761526 129.72361838 51.1875 126.0625 C51.68958984 125.04091797 52.19167969 124.01933594 52.70898438 122.96679688 C53.16982422 121.95810547 53.63066406 120.94941406 54.10546875 119.91015625 C54.54012451 118.99371338 54.97478027 118.07727051 55.42260742 117.13305664 C56.27550286 112.50506209 54.76522262 109.26994085 53 105 C52.66646011 104.18460251 52.33292023 103.36920502 51.98927307 102.52909851 C50.86799212 99.85693678 49.71055493 97.20302339 48.54296875 94.55078125 C48.11752274 93.57570114 47.69207672 92.60062103 47.2537384 91.59599304 C45.90196581 88.49988901 44.54490937 85.40613627 43.1875 82.3125 C42.28804341 80.25602031 41.3889518 78.19938095 40.49023438 76.14257812 C40.05212433 75.14008026 39.61401428 74.1375824 39.16262817 73.10470581 C38.73126556 72.11753571 38.29990295 71.1303656 37.85546875 70.11328125 C37.43095428 69.14182159 37.00643982 68.17036194 36.56906128 67.16946411 C35.75451038 65.3052903 34.94012126 63.44104579 34.12591553 61.57672119 C33.40871045 59.93535691 32.69073532 58.29432874 31.97174072 56.65374756 C31.09872047 54.66000298 30.23018993 52.66437642 29.36328125 50.66796875 C28.66585815 49.06924927 28.66585815 49.06924927 27.9543457 47.43823242 C27 45 27 45 27 43 C19.74 43 12.48 43 5 43 C5.33 63.13 5.66 83.26 6 104 C8.64 103.67 11.28 103.34 14 103 C15.46804363 101.14853436 15.46804363 101.14853436 16 99 C16.66 98.34 17.32 97.68 18 97 C19.32 97.66 20.64 98.32 22 99 C21.88172879 102.90294997 20.46938433 104.89131987 17.875 107.625 C11.36263527 113.65156333 5.89278123 114.57228872 -2.8359375 114.3515625 C-8.63387048 113.70734772 -12.3412002 111.70245242 -16.375 107.5625 C-19.22054006 103.07530222 -20.25061313 99.51326 -20.22705078 94.19995117 C-20.22682419 92.48874336 -20.22682419 92.48874336 -20.22659302 90.7429657 C-20.21627045 89.52196671 -20.20594788 88.30096771 -20.1953125 87.04296875 C-20.1924826 85.78486893 -20.18965271 84.5267691 -20.18673706 83.23054504 C-20.17745121 79.89812618 -20.15950476 76.56598453 -20.1373291 73.23364258 C-20.11681017 69.82831203 -20.10772246 66.42295277 -20.09765625 63.01757812 C-20.0756164 56.34497582 -20.0421539 49.67250391 -20 43 C-22.97 43 -25.94 43 -29 43 C-29 40.69 -29 38.38 -29 36 C-28.34773438 35.90203125 -27.69546875 35.8040625 -27.0234375 35.703125 C-17.45071114 34.06531341 -11.6134085 29.89428251 -6 22 C-2.24080026 15.08679676 -1.00945749 7.73031919 0 0 Z " fill="#BB0000" transform="translate(1789,11)"/>
<path d="M0 0 C0.83184814 0.01015137 1.66369629 0.02030273 2.52075195 0.03076172 C12.60039289 0.28524331 20.02979795 2.45258631 27.5625 9.375 C29.83862311 11.95061299 31.65687092 14.51655638 33.5625 17.375 C34.18125 16.529375 34.8 15.68375 35.4375 14.8125 C41.68512656 7.3224477 50.93154356 1.88314428 60.5625 0.375 C72.59015241 -0.41454809 84.78858778 -0.66132782 94.5625 7.375 C101.69747806 13.99249613 105.02014901 21.84037859 106.5625 31.375 C106.65033754 34.14350412 106.68899135 36.88571315 106.67602539 39.65356445 C106.67617142 40.47359451 106.67631744 41.29362457 106.6764679 42.13850403 C106.6757734 44.83845704 106.6680027 47.53834035 106.66015625 50.23828125 C106.65829043 52.11443545 106.6568673 53.99059013 106.65586853 55.866745 C106.6520563 60.797021 106.64223707 65.7272674 106.63116455 70.65753174 C106.62092259 75.69160563 106.61636494 80.72568431 106.61132812 85.75976562 C106.60061364 95.6315234 106.58355276 105.50325924 106.5625 115.375 C102.6025 115.375 98.6425 115.375 94.5625 115.375 C94.55663376 114.35737579 94.55076752 113.33975159 94.54472351 112.29129028 C94.48734493 102.66989453 94.41450495 93.0487215 94.32678509 83.42755318 C94.28218446 78.48199235 94.24290591 73.53651194 94.21606445 68.59082031 C94.18992829 63.8120049 94.14945379 59.0335007 94.09931374 54.254879 C94.08271448 52.43781297 94.07115721 50.62069319 94.06488609 48.80356216 C94.37900848 31.48702204 94.37900848 31.48702204 86.265625 16.78125 C79.26094415 10.99756856 70.16437601 11.57192029 61.5625 12.375 C54.30948726 14.02019557 47.55908394 16.7457258 43.38671875 23.19140625 C39.58513773 30.25543498 38.26820037 37.48190103 38.24365234 45.44335938 C38.23360672 46.20530609 38.2235611 46.96725281 38.21321106 47.75228882 C38.18261256 50.24110236 38.16540968 52.72980953 38.1484375 55.21875 C38.12970701 56.95610454 38.11013222 58.69345016 38.0897522 60.43078613 C38.03862354 64.98118816 37.99889523 69.53161962 37.96160889 74.08215332 C37.92144785 78.73452927 37.87041095 83.38678483 37.8203125 88.0390625 C37.72378161 97.15095686 37.63930439 106.2629195 37.5625 115.375 C33.2725 115.375 28.9825 115.375 24.5625 115.375 C24.55663376 114.33009903 24.55076752 113.28519806 24.54472351 112.20863342 C24.4873832 102.33675491 24.41456275 92.46509429 24.32678509 82.59343815 C24.28215529 77.51893276 24.24288295 72.4445063 24.21606445 67.36987305 C24.18995767 62.46787248 24.14950333 57.56617682 24.09931374 52.66436577 C24.0826948 50.79902389 24.07114967 48.93362934 24.06488609 47.06822395 C24.05519064 44.44498237 24.02706746 41.82251213 23.99487305 39.19946289 C23.99630814 38.4370076 23.99774323 37.67455231 23.9992218 36.88899231 C23.88468261 30.24240744 22.27026036 24.33073909 18.9375 18.5625 C12.59407897 12.71987536 5.8479635 11.82582933 -2.55371094 11.97509766 C-11.29498187 12.34395374 -17.3237784 14.29376954 -23.71484375 20.3671875 C-32.72743453 30.87165838 -31.75559176 46.40257589 -31.8515625 59.41796875 C-31.8703108 61.03893478 -31.88988682 62.65989143 -31.9102478 64.28083801 C-31.96118876 68.51061424 -32.00101588 72.74042198 -32.03839111 76.97033691 C-32.0786717 81.30126495 -32.12965325 85.63206624 -32.1796875 89.96289062 C-32.2759953 98.43350659 -32.36054183 106.90418623 -32.4375 115.375 C-36.3975 115.375 -40.3575 115.375 -44.4375 115.375 C-44.4375 78.085 -44.4375 40.795 -44.4375 2.375 C-41.1375 2.375 -37.8375 2.375 -34.4375 2.375 C-34.30472656 3.15746094 -34.17195313 3.93992187 -34.03515625 4.74609375 C-33.85855469 5.75800781 -33.68195313 6.76992188 -33.5 7.8125 C-33.32597656 8.82183594 -33.15195313 9.83117187 -32.97265625 10.87109375 C-32.68998903 13.3037438 -32.68998903 13.3037438 -31.4375 14.375 C-30.4475 13.0446875 -30.4475 13.0446875 -29.4375 11.6875 C-22.03429719 2.87020227 -11.15029747 -0.19755135 0 0 Z " fill="#000000" transform="translate(1172.4375,262.625)"/>
<path d="M0 0 C12.15041717 8.40462382 17.95181054 19.96946316 21.09301758 34.0625 C22.17165757 40.39797476 22.2020383 46.67688068 22.15234375 53.08984375 C22.14930237 53.7708313 22.14626099 54.45181885 22.14312744 55.15344238 C22.03630349 71.31756802 19.51541042 87.56720159 7.71484375 99.71484375 C-5.23760426 110.75056178 -18.66407147 113.02272142 -35.28515625 111.71484375 C-46.49226817 109.83006259 -53.4259417 104.5740583 -61.28515625 96.71484375 C-61.61515625 117.50484375 -61.94515625 138.29484375 -62.28515625 159.71484375 C-66.24515625 159.71484375 -70.20515625 159.71484375 -74.28515625 159.71484375 C-74.28515625 105.92484375 -74.28515625 52.13484375 -74.28515625 -3.28515625 C-70.65515625 -3.28515625 -67.02515625 -3.28515625 -63.28515625 -3.28515625 C-62.35024442 1.38940292 -62.20543613 5.01135645 -62.28515625 9.71484375 C-61.58390625 9.1115625 -60.88265625 8.50828125 -60.16015625 7.88671875 C-43.43628972 -6.20132099 -20.11475216 -11.31239908 0 0 Z M-54.28515625 16.71484375 C-59.89162066 25.50451814 -61.57148225 34.536106 -61.97265625 44.77734375 C-62.00955566 45.7005542 -62.04645508 46.62376465 -62.08447266 47.57495117 C-62.59384994 62.61725422 -62.60133735 79.70861527 -52.53515625 91.96484375 C-44.53053307 99.90882584 -35.00054111 100.9897594 -24.22216797 101.03833008 C-16.15077057 100.92358244 -9.51308154 99.03511177 -3.28515625 93.71484375 C-3.28515625 93.05484375 -3.28515625 92.39484375 -3.28515625 91.71484375 C-2.62515625 91.71484375 -1.96515625 91.71484375 -1.28515625 91.71484375 C4.14475211 84.33540202 7.08656258 76.65786495 8.71484375 67.71484375 C8.89789062 66.77125 9.0809375 65.82765625 9.26953125 64.85546875 C11.53205538 48.89871961 9.96518542 30.27798088 0.71484375 16.71484375 C-5.57321852 9.40837592 -11.69240765 6.15447274 -21.2109375 5.40625 C-33.69561305 4.8884654 -45.88606717 6.48393478 -54.28515625 16.71484375 Z " fill="#000000" transform="translate(1381.28515625,268.28515625)"/>
<path d="M0 0 C2.91494734 0.95721868 4.45447015 0.66604825 7.3671875 -0.22265625 C8.01945312 -0.56425781 8.67171875 -0.90585937 9.34375 -1.2578125 C13.42022697 -3.20161523 17.97947579 -2.84403739 22.3671875 -2.22265625 C25.87309924 -0.57841082 27.86593485 1.6274112 29.4296875 5.21484375 C29.34498885 8.68748852 28.1676167 10.84331098 26.3671875 13.77734375 C23.22847562 15.34669969 20.82862928 15.12935478 17.3671875 14.77734375 C14.20333989 12.3700684 12.66259862 10.79992071 11.5546875 6.96484375 C11.4928125 6.24296875 11.4309375 5.52109375 11.3671875 4.77734375 C10.7071875 5.10734375 10.0471875 5.43734375 9.3671875 5.77734375 C9.6353125 6.41671875 9.9034375 7.05609375 10.1796875 7.71484375 C16.11549895 23.02298906 16.11549895 23.02298906 12.6171875 31.40234375 C9.82047077 37.55068132 6.48818286 41.11987095 0.3671875 44.02734375 C-0.6640625 44.5275 -1.6953125 45.02765625 -2.7578125 45.54296875 C-7.33365382 47.50759627 -10.8899176 47.91417525 -15.8828125 47.90234375 C-17.61144531 47.89847656 -17.61144531 47.89847656 -19.375 47.89453125 C-22.03100731 47.79899142 -24.41074912 47.5263873 -27.0078125 47.02734375 C-32.00494532 46.6827139 -33.72743139 47.6689792 -37.6328125 50.77734375 C-38.36854411 53.86124261 -38.36854411 53.86124261 -38.6328125 56.77734375 C-37.59987061 56.76687012 -36.56692871 56.75639648 -35.50268555 56.74560547 C-31.62056023 56.70903359 -27.73844969 56.68630988 -23.85620117 56.66748047 C-22.18527657 56.65750672 -20.51436903 56.64392285 -18.84350586 56.62646484 C7.27507076 56.3606667 7.27507076 56.3606667 14.3671875 62.77734375 C20.45627476 70.84082171 21.00077335 77.78972685 20.3671875 87.77734375 C18.38827004 98.91849323 12.53364216 107.24642582 3.3671875 113.77734375 C-8.331655 119.8092878 -22.01407343 120.70504949 -34.6328125 117.15234375 C-42.68722453 114.31782948 -48.46834733 110.27338105 -52.6328125 102.77734375 C-54.30842807 97.75049703 -54.21107903 93.49193987 -52.0703125 88.65234375 C-49.75365197 84.35355851 -46.7464389 82.30880615 -42.6328125 79.77734375 C-43.05433594 79.23464844 -43.47585938 78.69195312 -43.91015625 78.1328125 C-44.45800781 77.41738281 -45.00585938 76.70195313 -45.5703125 75.96484375 C-46.11558594 75.25714844 -46.66085937 74.54945312 -47.22265625 73.8203125 C-50.87478442 68.52927916 -50.03543233 61.93059023 -49.6328125 55.77734375 C-47.58691181 49.15825328 -42.20493436 45.49209166 -36.6328125 41.77734375 C-37.5403125 41.11734375 -38.4478125 40.45734375 -39.3828125 39.77734375 C-44.04951009 35.87188051 -46.02981521 31.14626169 -47.5078125 25.33984375 C-47.79016556 17.2927815 -45.69695032 11.20792022 -40.203125 5.21875 C-29.43124294 -5.11504117 -13.16800603 -6.09174111 0 0 Z M-23.6328125 5.77734375 C-26.70040678 10.62340836 -25.96185612 16.04773077 -25.9453125 21.58984375 C-25.96142578 22.65783203 -25.97753906 23.72582031 -25.99414062 24.82617188 C-25.99786577 30.84973892 -25.82432377 35.57395009 -22.6328125 40.77734375 C-20.02845422 42.18304341 -17.55011994 42.07933065 -14.6328125 41.77734375 C-11.72788195 40.57748113 -10.20970296 39.68067102 -8.51879883 37.03295898 C-6.65111578 32.27806131 -7.30659496 26.87966624 -7.3203125 21.83984375 C-7.30419922 20.65970703 -7.28808594 19.47957031 -7.27148438 18.26367188 C-7.27083984 17.12478516 -7.27019531 15.98589844 -7.26953125 14.8125 C-7.26655029 13.77488525 -7.26356934 12.73727051 -7.26049805 11.66821289 C-7.68840889 8.34566056 -8.66305001 6.46382006 -10.6328125 3.77734375 C-15.39645531 1.39552235 -19.60382373 2.64368582 -23.6328125 5.77734375 Z M-38.7890625 85.03125 C-41.22898439 90.19893168 -42.53202963 95.33551267 -41.06640625 100.9453125 C-38.7398929 106.5059924 -34.9710928 109.22329999 -29.6328125 111.77734375 C-20.5851532 114.79323018 -10.64494812 113.29727979 -2.2265625 109.2578125 C4.40727271 105.47133126 8.95542829 101.1848899 11.3671875 93.77734375 C11.83873861 89.80284156 11.70942249 87.56448422 10.1171875 83.90234375 C8.10072023 81.45377635 7.39039883 81.31951751 4.3671875 80.77734375 C-1.17558535 80.41662034 -6.71443555 80.29447479 -12.26757812 80.20751953 C-14.09127064 80.17079871 -15.91469222 80.1161659 -17.73730469 80.04345703 C-29.64088296 78.92131221 -29.64088296 78.92131221 -38.7890625 85.03125 Z " fill="#BB0000" transform="translate(489.6328125,49.22265625)"/>
<path d="M0 0 C6.96003447 -0.02526838 13.9200572 -0.04283222 20.88012695 -0.05493164 C23.24992312 -0.05997341 25.61971615 -0.06680665 27.98950195 -0.07543945 C31.38754039 -0.0875119 34.78553785 -0.09322971 38.18359375 -0.09765625 C39.25024765 -0.10281754 40.31690155 -0.10797882 41.4158783 -0.11329651 C42.88729027 -0.11340981 42.88729027 -0.11340981 44.38842773 -0.11352539 C45.25668686 -0.115746 46.12494598 -0.11796661 47.01951599 -0.12025452 C49 0 49 0 50 1 C50 2.65 50 4.3 50 6 C46.04 6 42.08 6 38 6 C38.06170806 15.35499505 38.13916028 24.70969815 38.23571491 34.06439877 C38.28009489 38.41001911 38.31941823 42.75555264 38.34643555 47.10131836 C38.37279674 51.30960312 38.41341895 55.5175477 38.46318626 59.72561836 C38.47963667 61.31639883 38.49128463 62.90723782 38.49761391 64.49809074 C38.35711635 88.23258724 38.35711635 88.23258724 48.59765625 108.640625 C55.62807283 114.21371149 64.36066935 114.77643057 73 114 C79.52874484 112.76483206 84.62949322 110.04201694 89 105 C93.81551485 97.73158228 95.3088139 89.57792018 95.25878906 80.97924805 C95.2622937 80.22212021 95.26579834 79.46499237 95.26940918 78.68492126 C95.27813214 76.2104241 95.27241407 73.73621823 95.265625 71.26171875 C95.26697366 69.53155971 95.26891587 67.80140104 95.27142334 66.07124329 C95.27436119 62.45948652 95.27011757 58.84782914 95.26074219 55.23608398 C95.24930553 50.6045457 95.25594208 45.97323816 95.26788712 41.34170818 C95.27510549 37.77556103 95.27281864 34.20946887 95.26763153 30.64332008 C95.26629718 28.93486313 95.26793524 27.22640119 95.27259064 25.51795006 C95.27766018 23.13642446 95.26994174 20.75527668 95.25878906 18.3737793 C95.26283752 17.66777588 95.26688599 16.96177246 95.27105713 16.234375 C95.23940309 12.59243623 95.08058728 11.12088093 93 8 C90.81494871 7.20562077 90.81494871 7.20562077 88.375 6.8125 C87.55773438 6.65394531 86.74046875 6.49539062 85.8984375 6.33203125 C85.27195312 6.22246094 84.64546875 6.11289063 84 6 C84 4.02 84 2.04 84 0 C94.56 0 105.12 0 116 0 C116 1.98 116 3.96 116 6 C112.7 6.66 109.4 7.32 106 8 C104.19300875 12.62899658 103.71527298 16.75151256 103.74462891 21.66674805 C103.74100845 22.41073349 103.737388 23.15471893 103.73365784 23.92124939 C103.72679283 25.52863532 103.72425294 27.13604442 103.72560501 28.74344444 C103.72657587 31.29687917 103.71356049 33.84989934 103.69662476 36.40327454 C103.65053387 43.66033705 103.62577353 50.91735657 103.61914062 58.17456055 C103.61409583 62.62316196 103.58969517 67.07133066 103.55381393 71.51978493 C103.54408292 73.20485638 103.54164699 74.88998787 103.54698563 76.57507896 C103.58468032 89.06235905 102.40926309 101.01757544 94 111 C93.34 111 92.68 111 92 111 C92 111.66 92 112.32 92 113 C78.37038174 123.21510011 61.84541855 124.77130093 45.40234375 122.50390625 C34.74547233 120.07001432 24.41124799 114.63154354 18.23828125 105.3515625 C13.79642674 97.50034266 11.6879931 90.47724476 11.77294922 81.49438477 C11.77265717 80.67406265 11.77236511 79.85374054 11.77206421 79.00856018 C11.77344836 76.31939816 11.78896616 73.63051938 11.8046875 70.94140625 C11.80842089 69.06811169 11.81126632 67.19481516 11.81326294 65.32151794 C11.82087376 60.40766951 11.84050022 55.4939406 11.8626709 50.58013916 C11.88318442 45.55930193 11.89227641 40.53844525 11.90234375 35.51757812 C11.92374861 25.6783331 11.9578536 15.83917652 12 6 C8.04 6 4.08 6 0 6 C0 4.02 0 2.04 0 0 Z " fill="#BB0000" transform="translate(1178,3)"/>
<path d="M0 0 C4.26809465 1.74913925 7.84416975 2.23885428 12.421875 2.40234375 C12.751875 1.08234375 13.081875 -0.23765625 13.421875 -1.59765625 C15.401875 -1.59765625 17.381875 -1.59765625 19.421875 -1.59765625 C19.421875 12.26234375 19.421875 26.12234375 19.421875 40.40234375 C17.441875 40.40234375 15.461875 40.40234375 13.421875 40.40234375 C13.14214844 39.45875 12.86242187 38.51515625 12.57421875 37.54296875 C8.43993418 24.09245775 3.08610062 11.77065662 -9.5078125 4.25 C-15.81479178 1.41055082 -23.25962824 1.38410287 -29.9140625 2.953125 C-36.12741952 5.46465437 -39.00427205 10.44505798 -41.578125 16.40234375 C-45.14326923 27.10916669 -46.72867493 37.6290723 -46.74609375 48.8828125 C-46.74942215 49.6581282 -46.75275055 50.43344391 -46.75617981 51.23225403 C-46.76120369 52.86161717 -46.76358955 54.49099045 -46.76342773 56.12036133 C-46.76560445 58.56674873 -46.7837822 61.01267695 -46.80273438 63.45898438 C-46.85784087 78.81455104 -46.82371107 96.940718 -36.578125 109.40234375 C-30.50804 114.2336359 -25.13391587 115.04086129 -17.578125 114.40234375 C-8.10609396 112.67483268 -1.60806156 108.4225677 4.171875 100.77734375 C9.25022198 93.09619935 11.37277255 84.2817877 13.421875 75.40234375 C15.401875 75.40234375 17.381875 75.40234375 19.421875 75.40234375 C19.421875 89.92234375 19.421875 104.44234375 19.421875 119.40234375 C17.441875 119.40234375 15.461875 119.40234375 13.421875 119.40234375 C12.926875 115.93734375 12.926875 115.93734375 12.421875 112.40234375 C6.15902187 114.38558057 0.15344353 116.71421615 -5.87890625 119.31640625 C-11.52494787 121.58789622 -16.67692368 121.61867782 -22.703125 121.65234375 C-23.60289063 121.67296875 -24.50265625 121.69359375 -25.4296875 121.71484375 C-40.43805635 121.80109874 -51.10435871 115.68182433 -61.578125 105.40234375 C-62.14660156 104.85835938 -62.71507812 104.314375 -63.30078125 103.75390625 C-75.00063227 91.46126278 -78.99312602 73.35992422 -78.78515625 56.94921875 C-77.75092432 39.23067932 -70.89654315 21.43413918 -58.046875 8.94140625 C-40.87868825 -5.90808861 -20.73885832 -9.04549943 0 0 Z " fill="#BB0000" transform="translate(78.578125,4.59765625)"/>
<path d="M0 0 C6.01213473 4.69423463 8.12825807 10.2359379 9.05859375 17.7109375 C9.19113035 21.55264279 9.17491703 25.39078882 9.15625 29.234375 C9.15483505 30.33568756 9.1534201 31.43700012 9.15196228 32.57168579 C9.14638127 36.07646442 9.13383221 39.5811783 9.12109375 43.0859375 C9.1160763 45.46744699 9.11151382 47.84895749 9.10742188 50.23046875 C9.09641806 56.05731362 9.07969882 61.88412093 9.05859375 67.7109375 C9.84105469 67.69933594 10.62351562 67.68773438 11.4296875 67.67578125 C12.94755859 67.66224609 12.94755859 67.66224609 14.49609375 67.6484375 C15.50542969 67.63683594 16.51476563 67.62523438 17.5546875 67.61328125 C20.05859375 67.7109375 20.05859375 67.7109375 21.05859375 68.7109375 C21.18359375 71.2109375 21.18359375 71.2109375 21.05859375 73.7109375 C20.05859375 74.7109375 20.05859375 74.7109375 18.19200134 74.83119202 C17.3770369 74.82897141 16.56207245 74.82675079 15.72241211 74.82446289 C14.80153305 74.82438736 13.88065399 74.82431183 12.93186951 74.82423401 C11.93083694 74.81907272 10.92980438 74.81391144 9.8984375 74.80859375 C8.36903282 74.80647133 8.36903282 74.80647133 6.80873108 74.80430603 C3.53782268 74.79868847 0.26698162 74.786133 -3.00390625 74.7734375 C-5.21549381 74.76842476 -7.42708243 74.76386146 -9.63867188 74.75976562 C-15.07293982 74.74871334 -20.50716822 74.73195813 -25.94140625 74.7109375 C-25.94140625 72.4009375 -25.94140625 70.0909375 -25.94140625 67.7109375 C-22.64140625 67.7109375 -19.34140625 67.7109375 -15.94140625 67.7109375 C-16.03513227 60.1484666 -16.14127032 52.58630859 -16.25878906 45.02416992 C-16.29701349 42.45292907 -16.33187765 39.88163594 -16.36328125 37.31030273 C-16.40907323 33.60902249 -16.46704548 29.90810014 -16.52734375 26.20703125 C-16.53889496 25.06197617 -16.55044617 23.91692108 -16.56234741 22.73716736 C-16.66733273 17.02765305 -17.01011831 12.10160262 -18.94140625 6.7109375 C-24.62982069 5.50089797 -24.62982069 5.50089797 -30.06640625 7.0859375 C-34.84020297 11.44462146 -40.37570363 18.26330599 -41.21987915 24.90032959 C-41.23320282 25.69086731 -41.24652649 26.48140503 -41.26025391 27.29589844 C-41.2801236 28.19653015 -41.29999329 29.09716187 -41.32046509 30.02508545 C-41.3377919 31.47059784 -41.3377919 31.47059784 -41.35546875 32.9453125 C-41.3748349 33.93847473 -41.39420105 34.93163696 -41.41415405 35.95489502 C-41.47387947 39.12348879 -41.52030736 42.29211903 -41.56640625 45.4609375 C-41.60459248 47.61069283 -41.64364459 49.76043296 -41.68359375 51.91015625 C-41.77957537 57.17695977 -41.86363271 62.44383491 -41.94140625 67.7109375 C-38.64140625 67.7109375 -35.34140625 67.7109375 -31.94140625 67.7109375 C-31.94140625 70.0209375 -31.94140625 72.3309375 -31.94140625 74.7109375 C-47.45140625 74.7109375 -62.96140625 74.7109375 -78.94140625 74.7109375 C-78.94140625 72.4009375 -78.94140625 70.0909375 -78.94140625 67.7109375 C-74.98140625 67.7109375 -71.02140625 67.7109375 -66.94140625 67.7109375 C-66.94140625 46.9209375 -66.94140625 26.1309375 -66.94140625 4.7109375 C-70.90140625 4.7109375 -74.86140625 4.7109375 -78.94140625 4.7109375 C-78.94140625 2.7309375 -78.94140625 0.7509375 -78.94140625 -1.2890625 C-66.73140625 -1.2890625 -54.52140625 -1.2890625 -41.94140625 -1.2890625 C-41.44640625 3.1659375 -41.44640625 3.1659375 -40.94140625 7.7109375 C-40.40515625 6.95296875 -39.86890625 6.195 -39.31640625 5.4140625 C-36.70164351 2.43804964 -34.50053313 1.15152277 -30.94140625 -0.5390625 C-29.91015625 -1.03921875 -28.87890625 -1.539375 -27.81640625 -2.0546875 C-18.6495635 -5.99045151 -8.36743571 -5.55584262 0 0 Z " fill="#BB0000" transform="translate(1135.94140625,49.2890625)"/>
<path d="M0 0 C7.86722885 8.22483016 7.90110859 18.40025419 7.84765625 29.1796875 C7.8462413 30.25880402 7.84482635 31.33792053 7.84336853 32.44973755 C7.83778844 35.88318702 7.82523955 39.31657036 7.8125 42.75 C7.80748243 45.08333239 7.80291997 47.4166658 7.79882812 49.75 C7.78782552 55.45835867 7.77057456 61.16666813 7.75 66.875 C11.38 66.875 15.01 66.875 18.75 66.875 C18.75 69.185 18.75 71.495 18.75 73.875 C3.57 73.875 -11.61 73.875 -27.25 73.875 C-27.25 71.565 -27.25 69.255 -27.25 66.875 C-23.95 66.875 -20.65 66.875 -17.25 66.875 C-17.34372602 59.3125291 -17.44986407 51.75037109 -17.56738281 44.18823242 C-17.60560724 41.61699157 -17.6404714 39.04569844 -17.671875 36.47436523 C-17.71766698 32.77308499 -17.77563923 29.07216264 -17.8359375 25.37109375 C-17.84748871 24.22603867 -17.85903992 23.08098358 -17.87094116 21.90122986 C-17.97592648 16.19171555 -18.31871206 11.26566512 -20.25 5.875 C-25.9530028 4.64861471 -25.9530028 4.64861471 -31.375 6.3125 C-36.14723256 10.56601163 -41.70255922 16.49631365 -42.5284729 23.10235596 C-42.54179657 23.91065857 -42.55512024 24.71896118 -42.56884766 25.55175781 C-42.58871735 26.47241028 -42.60858704 27.39306274 -42.62905884 28.34161377 C-42.64638565 29.81993683 -42.64638565 29.81993683 -42.6640625 31.328125 C-42.68342865 32.34348328 -42.7027948 33.35884155 -42.7227478 34.40496826 C-42.78248099 37.64489365 -42.82890428 40.88485468 -42.875 44.125 C-42.91318551 46.32293208 -42.95223758 48.52084928 -42.9921875 50.71875 C-43.08817755 56.10404574 -43.17223205 61.48941154 -43.25 66.875 C-39.95 66.875 -36.65 66.875 -33.25 66.875 C-33.20745644 68.87454746 -33.20919217 70.87541636 -33.25 72.875 C-34.25 73.875 -34.25 73.875 -36.11659241 73.99525452 C-36.93155685 73.99303391 -37.7465213 73.99081329 -38.58618164 73.98852539 C-39.96750023 73.98841209 -39.96750023 73.98841209 -41.37672424 73.98829651 C-42.37775681 73.98313522 -43.37878937 73.97797394 -44.41015625 73.97265625 C-45.93956093 73.97053383 -45.93956093 73.97053383 -47.49986267 73.96836853 C-50.77077107 73.96275097 -54.04161213 73.9501955 -57.3125 73.9375 C-59.52408756 73.93248726 -61.73567618 73.92792396 -63.94726562 73.92382812 C-69.38153357 73.91277584 -74.81576197 73.89602063 -80.25 73.875 C-80.25 71.565 -80.25 69.255 -80.25 66.875 C-76.29 66.875 -72.33 66.875 -68.25 66.875 C-68.25 46.085 -68.25 25.295 -68.25 3.875 C-72.21 3.875 -76.17 3.875 -80.25 3.875 C-80.25 1.895 -80.25 -0.085 -80.25 -2.125 C-68.04 -2.125 -55.83 -2.125 -43.25 -2.125 C-42.755 1.835 -42.755 1.835 -42.25 5.875 C-41.280625 4.9675 -40.31125 4.06 -39.3125 3.125 C-27.93169921 -6.65971287 -12.57517344 -8.22222879 0 0 Z " fill="#BB0000" transform="translate(346.25,50.125)"/>
<path d="M0 0 C5.45052776 3.74215339 8.25426957 8.96592728 9.83203125 15.2578125 C10.22234897 19.46141747 10.18230371 23.63296615 10.125 27.8515625 C10.12075516 29.03882935 10.11651031 30.22609619 10.11213684 31.44934082 C10.09542464 35.2190679 10.05778506 38.98824862 10.01953125 42.7578125 C10.00447483 45.32290891 9.9907881 47.88801376 9.97851562 50.453125 C9.94554535 56.72156276 9.89381362 62.98959518 9.83203125 69.2578125 C13.79203125 69.2578125 17.75203125 69.2578125 21.83203125 69.2578125 C21.83203125 71.2378125 21.83203125 73.2178125 21.83203125 75.2578125 C6.65203125 75.2578125 -8.52796875 75.2578125 -24.16796875 75.2578125 C-24.16796875 73.2778125 -24.16796875 71.2978125 -24.16796875 69.2578125 C-21.19796875 69.2578125 -18.22796875 69.2578125 -15.16796875 69.2578125 C-15.27557865 61.7645465 -15.38823393 54.27137071 -15.50730801 46.77827835 C-15.56244243 43.29883166 -15.615847 39.81937643 -15.6652832 36.33984375 C-15.72220999 32.33845053 -15.78668762 28.33720981 -15.8515625 24.3359375 C-15.86827499 23.08790344 -15.88498749 21.83986938 -15.90220642 20.55401611 C-15.93212425 18.81266388 -15.93212425 18.81266388 -15.96264648 17.03613281 C-15.98596291 15.50391083 -15.98596291 15.50391083 -16.00975037 13.94073486 C-16.14992303 11.56381522 -16.49189927 9.53214351 -17.16796875 7.2578125 C-21.67784108 6.89702271 -25.17590217 6.81040993 -29.35546875 8.6953125 C-35.05522699 13.88842556 -39.62123943 20.60830232 -40.38049316 28.45388794 C-40.49412977 31.05353721 -40.54898905 33.64807807 -40.58203125 36.25 C-40.6013974 37.19594025 -40.62076355 38.14188049 -40.64071655 39.1164856 C-40.70023924 42.12183772 -40.74678821 45.12722871 -40.79296875 48.1328125 C-40.83117367 50.17709954 -40.87022686 52.22137092 -40.91015625 54.265625 C-41.00591829 59.2628928 -41.09004989 64.26023592 -41.16796875 69.2578125 C-37.86796875 69.2578125 -34.56796875 69.2578125 -31.16796875 69.2578125 C-31.16796875 71.2378125 -31.16796875 73.2178125 -31.16796875 75.2578125 C-46.34796875 75.2578125 -61.52796875 75.2578125 -77.16796875 75.2578125 C-77.16796875 73.2778125 -77.16796875 71.2978125 -77.16796875 69.2578125 C-73.53796875 69.2578125 -69.90796875 69.2578125 -66.16796875 69.2578125 C-66.16796875 48.4678125 -66.16796875 27.6778125 -66.16796875 6.2578125 C-69.79796875 6.2578125 -73.42796875 6.2578125 -77.16796875 6.2578125 C-77.16796875 4.2778125 -77.16796875 2.2978125 -77.16796875 0.2578125 C-65.28796875 0.2578125 -53.40796875 0.2578125 -41.16796875 0.2578125 C-40.67296875 4.7128125 -40.67296875 4.7128125 -40.16796875 9.2578125 C-39.26046875 8.2059375 -38.35296875 7.1540625 -37.41796875 6.0703125 C-27.77115041 -3.44117973 -12.18235325 -6.46410581 0 0 Z " fill="#BB0000" transform="translate(1366.16796875,47.7421875)"/>
<path d="M0 0 C-0.55105909 3.9492568 -1.38935371 7.34920174 -3 11 C-7.17265709 10.12154588 -11.28085612 9.21058264 -15.375 8.01171875 C-30.20009753 3.69296682 -45.95022804 1.54892826 -60.4375 8.3125 C-66.21504823 11.49246255 -70.4657454 15.41013095 -73.26953125 21.4296875 C-75.23113209 28.33200489 -75.39246784 36.92341641 -72.4375 43.5625 C-68.14321237 50.17014312 -62.00212858 53.89543654 -54.875 56.875 C-54.10583252 57.20814209 -53.33666504 57.54128418 -52.54418945 57.88452148 C-46.49544184 60.46715324 -40.3507023 62.77032651 -34.1875 65.0625 C-20.14385382 70.31581678 -4.97377716 76.36722021 2.06640625 90.59375 C6.32259523 101.56367641 5.76120006 113.46611321 1.41796875 124.33203125 C-4.73735832 135.91354195 -15.05223375 142.42907328 -27.203125 146.23828125 C-34.73389198 148.28925829 -42.04633008 148.24130328 -49.8125 148.25 C-50.86003952 148.25200912 -50.86003952 148.25200912 -51.92874146 148.25405884 C-65.20607835 148.24851698 -77.66033702 147.39860255 -90 142 C-90 138.04 -90 134.08 -90 130 C-88.783125 130.268125 -87.56625 130.53625 -86.3125 130.8125 C-85.48878906 130.99296875 -84.66507813 131.1734375 -83.81640625 131.359375 C-81.86031575 131.80431098 -79.90996814 132.27496299 -77.96484375 132.765625 C-70.29024659 134.66795528 -62.8985681 135.69025223 -55 136 C-53.989375 136.04125 -52.97875 136.0825 -51.9375 136.125 C-39.22545585 136.38983425 -26.67644073 134.72525872 -16.76171875 126.0390625 C-11.23445451 120.06549742 -9.71234225 114.64825779 -9.6875 106.5 C-9.66236328 104.59734375 -9.66236328 104.59734375 -9.63671875 102.65625 C-10.02343205 98.76416779 -11.1133894 96.38494779 -13 93 C-13 92.34 -13 91.68 -13 91 C-13.66 91 -14.32 91 -15 91 C-16.11955078 89.86304688 -16.11955078 89.86304688 -17.26171875 88.703125 C-24.77945845 81.28190407 -36.27755552 78.06557446 -46 74.5 C-77.75020121 62.81353175 -77.75020121 62.81353175 -85.0625 48.6875 C-89.29511648 39.3335682 -89.66248525 27.66326363 -86.3125 17.9375 C-81.637552 7.13675807 -73.89659502 0.2999347 -63 -4.375 C-43.64257367 -11.24278391 -18.43724129 -9.21862064 0 0 Z " fill="#000000" transform="translate(1926,232)"/>
<path d="M0 0 C-0.72241198 4.11704694 -2.02353711 7.30487372 -4 11 C-7.91622762 10.29259948 -11.63429173 9.22764473 -15.4375 8.0625 C-30.89749024 3.64996112 -48.17098636 1.22902651 -63 9 C-69.22275324 12.85768655 -72.23634255 17.26390111 -74.37890625 24.234375 C-76.07621701 31.79221159 -74.9575558 37.90457943 -72 45 C-71.71898438 45.70511719 -71.43796875 46.41023438 -71.1484375 47.13671875 C-69.68912774 49.50437438 -68.5523025 49.9205159 -66 51 C-65.0409375 51.51433594 -64.081875 52.02867187 -63.09375 52.55859375 C-53.10476856 57.82517452 -42.78567976 61.95316114 -32.20117188 65.87866211 C-19.058632 70.85524217 -4.75240712 77.30732468 1.5 90.75 C5.29333361 100.23333403 5.56334096 112.39447219 2 122 C-3.27038078 133.39831505 -11.32965518 139.68183908 -22.59375 144.7734375 C-31.85289146 148.10757789 -40.80179806 148.36128172 -50.5625 148.3125 C-51.63007034 148.31076279 -51.63007034 148.31076279 -52.71920776 148.30899048 C-65.89007399 148.26648166 -77.84532668 147.47190211 -90 142 C-90 138.04 -90 134.08 -90 130 C-88.98164062 130.26554688 -87.96328125 130.53109375 -86.9140625 130.8046875 C-66.66735568 135.92076484 -42.22146542 140.59217555 -23 130 C-22.04287109 129.47792969 -22.04287109 129.47792969 -21.06640625 128.9453125 C-15.49855478 125.472889 -12.32115223 120.23939355 -10.3828125 114.01953125 C-8.86311388 106.00234567 -10.09644528 99.28237064 -13.97265625 92.23046875 C-21.68194879 81.24906491 -39.77113943 77.10361752 -51.60961914 72.65014648 C-65.07817192 67.53681946 -79.63572418 61.91748229 -86 48 C-89.68449457 37.15367664 -90.72948456 26.11636979 -85.84765625 15.4921875 C-79.28241828 3.59837689 -69.16432221 -2.9580158 -56.28515625 -6.8125 C-37.18622806 -10.94820776 -17.93860227 -6.60621015 0 0 Z " fill="#000000" transform="translate(90,232)"/>
<path d="M0 0 C3.96 0 7.92 0 12 0 C12.33 20.13 12.66 40.26 13 61 C15.64 58.36 18.28 55.72 21 53 C23.65234375 51.1953125 23.65234375 51.1953125 25.9375 50.125 C26.68902344 49.75632812 27.44054687 49.38765625 28.21484375 49.0078125 C35.57162836 46.34575019 42.65231591 45.65902456 50.4375 45.6875 C51.31470703 45.67138672 52.19191406 45.65527344 53.09570312 45.63867188 C63.19368554 45.63123047 72.33078329 48.24168642 80 55 C88.14801044 64.60682453 90.17346196 74.95897138 90.11352539 87.32202148 C90.11367142 88.12283646 90.11381744 88.92365143 90.1139679 89.74873352 C90.11327605 92.37288199 90.105518 94.99695781 90.09765625 97.62109375 C90.09578948 99.44954896 90.0943668 101.27800468 90.09336853 103.10646057 C90.08956374 107.90190021 90.07975097 112.69730922 90.06866455 117.49273682 C90.05840649 122.39294012 90.05386152 127.29314841 90.04882812 132.19335938 C90.03812677 141.79558632 90.02107498 151.39779061 90 161 C86.04 161 82.08 161 78 161 C77.99413376 160.02440125 77.98826752 159.04880249 77.98222351 158.04364014 C77.92476699 148.80548218 77.85188766 139.56755445 77.76428509 130.32963181 C77.71974367 125.58142578 77.6804527 120.83330235 77.65356445 116.08496094 C77.6273684 111.49416282 77.58685344 106.90368539 77.53681374 102.31308746 C77.52025444 100.57024403 77.50867261 98.82734527 77.50238609 97.08443451 C77.74822853 80.22609189 77.74822853 80.22609189 71.4375 65 C65.11099129 58.73476498 57.69672403 57.60667983 49.125 57.5 C38.63432985 57.62991542 29.37032073 59.55018651 21.6171875 67.078125 C11.76040114 78.79198705 12.85272957 95.24589897 12.68359375 109.6328125 C12.6629769 111.12068191 12.64197936 112.60854608 12.62062073 114.09640503 C12.56588781 117.97932654 12.51626715 121.86229652 12.46777344 125.74530029 C12.4171981 129.72086817 12.36170171 133.69636717 12.30664062 137.671875 C12.19965736 145.44785952 12.0985399 153.22390306 12 161 C8.04 161 4.08 161 0 161 C0 107.87 0 54.74 0 0 Z " fill="#000000" transform="translate(212,217)"/>
<path d="M0 0 C1.28816247 1.06266924 2.55949237 2.14609767 3.8125 3.25 C4.41964844 3.75273437 5.02679687 4.25546875 5.65234375 4.7734375 C14.84265586 13.01857528 18.02311022 24.42014534 19.8125 36.25 C19.8125 42.52 19.8125 48.79 19.8125 55.25 C-6.5875 55.25 -32.9875 55.25 -60.1875 55.25 C-57.62862134 75.63873756 -57.62862134 75.63873756 -46.1875 92.03515625 C-34.81033986 100.30391371 -20.6231289 100.66414042 -7.09082031 98.99072266 C-0.14775134 97.87394473 6.29868684 95.83094484 12.8125 93.25 C13.8025 93.25 14.7925 93.25 15.8125 93.25 C15.8125 96.88 15.8125 100.51 15.8125 104.25 C13.83672092 105.05008365 11.85666153 105.83959921 9.875 106.625 C8.22177734 107.28628906 8.22177734 107.28628906 6.53515625 107.9609375 C-8.28364809 113.09231781 -27.82553407 114.18768574 -42.62890625 108.5234375 C-46.78428945 106.45526204 -50.51020843 104.07391167 -54.1875 101.25 C-55.05375 100.6725 -55.92 100.095 -56.8125 99.5 C-68.45359755 88.4715918 -72.5979643 73.11597393 -73.37109375 57.5546875 C-73.70811359 38.2454332 -69.7903972 20.65954292 -56.625 6 C-42.67376124 -7.2673545 -16.21218215 -11.48362902 0 0 Z M-51.1875 17.25 C-56.9431394 25.80805771 -58.11690934 33.89704672 -60.1875 44.25 C-38.0775 44.25 -15.9675 44.25 6.8125 44.25 C6.8125 31.7644907 5.10712186 21.88756063 -3.1875 12.25 C-10.65724902 5.50739469 -18.20873994 4.70346842 -27.94921875 4.9453125 C-37.6195901 5.4608952 -44.93434583 9.95465347 -51.1875 17.25 Z " fill="#000000" transform="translate(2157.1875,268.75)"/>
<path d="M0 0 C12.28598329 9.77294125 17.17794184 20.75515103 19.75 36.1875 C19.75 42.4575 19.75 48.7275 19.75 55.1875 C-6.65 55.1875 -33.05 55.1875 -60.25 55.1875 C-57.65794331 76.18624572 -57.65794331 76.18624572 -45.4765625 92.6796875 C-33.98364902 100.60745231 -18.64197235 100.80751931 -5.265625 98.61328125 C1.52228537 97.21271896 8.14847121 95.28798643 14.75 93.1875 C14.75 96.8175 14.75 100.4475 14.75 104.1875 C3.64699437 109.55395272 -6.8612175 111.74091543 -19.1875 111.625 C-20.32904541 111.61670166 -21.47059082 111.60840332 -22.64672852 111.59985352 C-37.14306566 111.30870415 -49.65286171 107.36303018 -60 96.625 C-72.39295294 81.16359958 -74.75847676 62.35653964 -73.25 43.1875 C-71.31804823 26.76590998 -65.25959228 12.89539519 -52.25 2.1875 C-49.36429193 0.14386715 -46.49708762 -1.42089102 -43.25 -2.8125 C-42.55132813 -3.12960937 -41.85265625 -3.44671875 -41.1328125 -3.7734375 C-27.74063565 -8.82446614 -12.214276 -6.81180777 0 0 Z M-49.2109375 14.8046875 C-55.79270614 22.49602633 -60.25 33.97264128 -60.25 44.1875 C-38.14 44.1875 -16.03 44.1875 6.75 44.1875 C6.75 32.07759924 4.92538363 21.53358296 -3.25 12.1875 C-10.57026524 5.46210959 -18.6838852 4.6282195 -28.26953125 4.8828125 C-36.85755621 5.54018831 -43.02157632 8.87777273 -49.2109375 14.8046875 Z " fill="#000000" transform="translate(1681.25,268.8125)"/>
<path d="M0 0 C10.19463947 8.36002132 14.57394468 17.54577871 17.75 30.25 C17.75 38.17 17.75 46.09 17.75 54.25 C-8.65 54.25 -35.05 54.25 -62.25 54.25 C-58.84359153 74.69333003 -58.84359153 74.69333003 -47.25 91.25 C-33.65461452 99.54169114 -18.08154326 100.16501072 -2.6875 96.9375 C2.85135796 95.57068429 8.31416932 93.97958249 13.75 92.25 C13.75 95.88 13.75 99.51 13.75 103.25 C-2.58021148 111.27671412 -23.14025843 113.64714494 -40.8125 108.5625 C-45.70094768 106.69338765 -50.08974011 104.42563548 -54.25 101.25 C-55.26513672 100.49589844 -55.26513672 100.49589844 -56.30078125 99.7265625 C-67.10190566 91.06125365 -72.27492458 77.645337 -74.25 64.25 C-75.78871146 43.8648014 -73.26153488 25.19266968 -61.12109375 8.28515625 C-60.50363281 7.61355469 -59.88617187 6.94195312 -59.25 6.25 C-58.59 6.25 -57.93 6.25 -57.25 6.25 C-57.25 5.59 -57.25 4.93 -57.25 4.25 C-42.20212085 -9.54105855 -16.79590269 -11.66470661 0 0 Z M-51.25 15.25 C-57.73272244 23.99653028 -59.91430799 32.56446395 -61.25 43.25 C-39.14 43.25 -17.03 43.25 5.75 43.25 C5.75 30.54517441 3.74037889 20.51943593 -5.20703125 11.21484375 C-12.49603057 4.42757287 -19.63509082 3.69313973 -29.265625 3.94140625 C-38.35602758 4.64546684 -45.21512675 8.46238988 -51.25 15.25 Z " fill="#000000" transform="translate(2482.25,269.75)"/>
<path d="M0 0 C12.24376093 9.00871217 18.99679282 21.42489749 21.78125 36.2421875 C24.5072144 56.75919986 22.4633193 77.11489381 10.1796875 94.265625 C2.42856028 103.54475221 -8.27278722 109.19114339 -20.29663086 110.69311523 C-22.87285348 110.84641154 -25.41936541 110.89403905 -28 110.875 C-28.91168945 110.86927979 -29.82337891 110.86355957 -30.76269531 110.85766602 C-44.09574758 110.50846703 -54.15054247 105.77406616 -63.67578125 96.5 C-75.61423605 83.82018505 -79.27669376 65.35725799 -78.94140625 48.4140625 C-78.00429249 33.53499091 -74.46262584 17.47021962 -63.75 6.375 C-63.09 6.375 -62.43 6.375 -61.75 6.375 C-61.75 5.715 -61.75 5.055 -61.75 4.375 C-44.73669052 -9.46749228 -18.82267564 -11.36463435 0 0 Z M-46.75 8.375 C-47.80574219 8.97634766 -47.80574219 8.97634766 -48.8828125 9.58984375 C-57.40854212 15.1818147 -61.92393652 24.07102556 -64.2421875 33.76953125 C-64.40976562 34.62933594 -64.57734375 35.48914063 -64.75 36.375 C-64.93304688 37.29667969 -65.11609375 38.21835937 -65.3046875 39.16796875 C-67.56028488 55.41222709 -65.72065393 72.37103798 -56.75 86.375 C-50.98961506 93.78815362 -44.01483146 97.91285108 -34.75 99.375 C-23.44679212 100.09266399 -13.56955218 99.47427053 -4.5625 92.1015625 C6.65757741 81.41347152 9.59458185 67.5069538 10.2109375 52.5703125 C10.52493322 38.1198284 7.10490273 24.26030811 -2.75 13.375 C-10.29816099 6.03084336 -19.98721469 4.07733466 -30.13061523 4.05810547 C-36.36792129 4.16504203 -41.30613937 5.19442941 -46.75 8.375 Z " fill="#000000" transform="translate(402.75,269.625)"/>
<path d="M0 0 C12.06559043 9.33324821 16.70742326 25.15455874 18.74902344 39.61083984 C20.72422476 56.25726548 17.99856751 75.28422164 7.9921875 89.09765625 C0.31226568 98.52743368 -8.87024396 105.38116131 -21.0078125 107.66015625 C-37.43549706 109.21991603 -51.79333939 107.24802376 -65.0078125 96.66015625 C-78.04622171 83.8251191 -82.22343145 66.39507343 -82.3828125 48.66015625 C-82.20572344 30.81801158 -78.0062385 14.81421219 -65.24609375 1.7109375 C-47.33342305 -14.70119534 -19.15080068 -12.77961991 0 0 Z M-61.0078125 14.66015625 C-67.88812414 24.8898762 -69.51075236 36.53577094 -69.3828125 48.59765625 C-69.39441406 49.68755859 -69.40601563 50.77746094 -69.41796875 51.90039062 C-69.3723832 64.68713796 -66.68068077 77.3187857 -57.86328125 87.01953125 C-48.9932956 95.30019929 -40.51583005 96.99570445 -28.578125 96.87109375 C-19.93913192 96.36069372 -12.53356562 93.39680679 -6.0078125 87.66015625 C5.37621938 74.42526841 6.89676126 57.36650292 5.9921875 40.66015625 C4.8553375 28.14059566 0.57956046 17.15805501 -9.0078125 8.66015625 C-25.68361724 -3.51247759 -47.62507051 -0.73120705 -61.0078125 14.66015625 Z " fill="#000000" transform="translate(525.0078125,272.33984375)"/>
<path d="M0 0 C0.85078125 -0.00773437 1.7015625 -0.01546875 2.578125 -0.0234375 C13.84716167 0.0111301 24.24863043 3.67172292 33.3125 10.5 C46.44253698 23.93538668 50.44344575 40.00545329 50.4375 58.25 C50.43910126 59.28729752 50.43910126 59.28729752 50.44073486 60.34555054 C50.41684155 71.04432269 49.6653767 80.45024048 45 90.25 C44.55398438 91.19101562 44.10796875 92.13203125 43.6484375 93.1015625 C37.15935048 105.1009357 27.18556594 112.45896436 14.24609375 116.390625 C9.54624613 117.49210822 4.93544919 117.59406043 0.125 117.5625 C-0.75905518 117.55758545 -1.64311035 117.5526709 -2.55395508 117.54760742 C-14.71586856 117.32872665 -25.24108432 113.29690458 -34.3125 105.0234375 C-48.22432981 90.40313487 -50.59664367 71.93809965 -50.25390625 52.65625 C-49.70618347 36.86862253 -44.41980019 21.97002381 -32.75 11 C-22.99902089 2.7731235 -12.53865414 -0.11398776 0 0 Z M-29 24.25 C-35.88031164 34.47971995 -37.50293986 46.12561469 -37.375 58.1875 C-37.38660156 59.27740234 -37.39820313 60.36730469 -37.41015625 61.49023438 C-37.3645707 74.27698171 -34.67286827 86.90862945 -25.85546875 96.609375 C-16.98315892 104.8922128 -8.51842083 106.5687407 3.41796875 106.46875 C13.65578994 105.84353955 21.29211737 101.62807061 28.33203125 94.27734375 C38.41912574 82.01691743 39.39251544 64.46055332 38 49.25 C36.70986455 40.26941753 34.16776672 31.79123612 29 24.25 C28.443125 23.363125 27.88625 22.47625 27.3125 21.5625 C19.83983928 14.08983928 10.68616161 10.97812413 0.25 10.875 C-12.06577664 10.96729023 -20.79315675 14.81138823 -29 24.25 Z " fill="#000000" transform="translate(713,262.75)"/>
<path d="M0 0 C1.42128269 1.0497225 2.81801547 2.13354404 4.1875 3.25 C5.21810547 4.07757813 5.21810547 4.07757813 6.26953125 4.921875 C16.60501145 14.17045001 21.33122074 28.08159163 22.47094727 41.6159668 C22.58698932 44.99941791 22.59755865 48.36489274 22.5625 51.75 C22.57410156 52.87019531 22.58570313 53.99039063 22.59765625 55.14453125 C22.54072528 71.59758043 18.07734548 86.07048489 6.52734375 98.0625 C-4.10473656 108.00234136 -16.1517051 110.89156736 -30.42675781 110.71826172 C-44.39698217 110.21117072 -55.33000186 105.26836878 -65.0625 95.125 C-78.22656529 78.29789046 -79.52086951 57.52006276 -77.6015625 36.99414062 C-75.72128796 22.564458 -68.65870049 10.80918421 -57.69140625 1.4375 C-41.62494971 -10.35439471 -16.73071861 -10.37871697 0 0 Z M-56.87109375 17.63671875 C-66.40715186 30.47298208 -66.91815663 47.83240119 -65.0625 63.125 C-63.08809058 75.84897184 -58.71611935 85.78649135 -48.60546875 94 C-39.74955969 100.17405425 -28.30658715 100.45971585 -17.95703125 98.7890625 C-11.9277468 97.19994877 -7.40546673 94.42632612 -2.8125 90.25 C-1.99458984 89.51330078 -1.99458984 89.51330078 -1.16015625 88.76171875 C8.07894417 79.28752671 10.12489903 64.43792178 10.4375 51.75 C10.07273248 36.06499661 6.52939084 22.06049217 -5 11 C-21.27411621 -1.94853594 -44.0384198 2.75860911 -56.87109375 17.63671875 Z " fill="#000000" transform="translate(1081.8125,269.75)"/>
<path d="M0 0 C4.80669055 4.36879289 6.58512968 9.71431849 7.00196838 16.09931946 C7.01751266 16.94093124 7.03305695 17.78254303 7.04907227 18.6496582 C7.0789901 20.09058586 7.0789901 20.09058586 7.10951233 21.56062317 C7.12622482 22.58475815 7.14293732 23.60889313 7.16015625 24.6640625 C7.18093735 25.72239792 7.20171844 26.78073334 7.22312927 27.87113953 C7.28838103 31.24345566 7.34739637 34.61584799 7.40625 37.98828125 C7.4494584 40.27800259 7.49307343 42.5677163 7.53710938 44.85742188 C7.64403741 50.4634617 7.74584863 56.06957691 7.84375 61.67578125 C8.83375 61.67578125 9.82375 61.67578125 10.84375 61.67578125 C11.83375 59.03578125 12.82375 56.39578125 13.84375 53.67578125 C15.49375 53.67578125 17.14375 53.67578125 18.84375 53.67578125 C19.15701883 58.21817929 19.27110216 60.78688875 17.28125 64.92578125 C12.67629769 70.12111206 7.44854008 72.39848971 0.59375 72.92578125 C-4.97142853 72.55476935 -9.33146792 71.18122646 -13.65625 67.61328125 C-15.15625 65.67578125 -15.15625 65.67578125 -15.15625 63.67578125 C-15.84589844 64.15789062 -16.53554687 64.64 -17.24609375 65.13671875 C-27.16431877 71.80328975 -35.86566514 74.1081638 -47.65625 71.98828125 C-53.60042929 70.53046871 -58.17370163 67.60615729 -62.53125 63.36328125 C-66.50600883 56.78964165 -66.86260463 50.04525486 -65.15625 42.67578125 C-61.51401732 35.65147536 -56.29811874 32.27820585 -49.078125 29.5546875 C-38.83939444 26.47485545 -27.77916217 26.24114632 -17.15625 25.67578125 C-17.24344463 22.61194223 -17.35035397 19.55094074 -17.46875 16.48828125 C-17.50258789 15.19180664 -17.50258789 15.19180664 -17.53710938 13.86914062 C-17.74039541 9.04571747 -18.00686913 5.57575166 -21.15625 1.67578125 C-26.00748823 -1.32057177 -32.07764801 -0.91547344 -37.515625 0.12890625 C-39.40782954 0.59860241 -41.28422558 1.13119233 -43.15625 1.67578125 C-42.16625 2.27390625 -41.17625 2.87203125 -40.15625 3.48828125 C-37.89836325 5.36447762 -37.22374507 6.38719657 -36.546875 9.28125 C-36.30737657 14.21092592 -36.53368319 16.84023105 -39.53125 20.86328125 C-43.72896481 23.59528566 -48.35316702 23.50970551 -53.15625 22.67578125 C-56.37687242 21.13256634 -57.59785704 19.93899022 -59.03515625 16.6875 C-60.27814609 12.57497934 -60.50161784 9.47188857 -58.78125 5.48828125 C-55.16359947 -0.54514256 -49.88586133 -4.0179723 -43.28125 -6.19921875 C-29.13562466 -9.50445527 -11.98757979 -8.75180191 0 0 Z M-30.34375 33.36328125 C-31.34792969 33.49089844 -32.35210937 33.61851563 -33.38671875 33.75 C-37.12702734 35.00028651 -38.23388328 36.23266903 -40.15625 39.67578125 C-40.68948351 42.6954859 -40.67071178 45.617171 -40.59375 48.67578125 C-40.60083984 49.46984375 -40.60792969 50.26390625 -40.61523438 51.08203125 C-40.56502635 55.71661824 -40.24132919 58.982081 -37.15625 62.67578125 C-33.55107498 65.15295672 -30.54081095 64.92751335 -26.34375 64.34765625 C-21.88772245 62.97901922 -20.19780608 59.58832499 -18.03515625 55.6171875 C-16.71860096 51.2111158 -16.94728609 46.93285542 -17.03125 42.36328125 C-17.04027344 41.43193359 -17.04929687 40.50058594 -17.05859375 39.54101562 C-17.08206737 37.25233765 -17.11490271 34.96419453 -17.15625 32.67578125 C-21.62073995 32.61416345 -25.92086154 32.73961393 -30.34375 33.36328125 Z " fill="#BB0000" transform="translate(173.15625,53.32421875)"/>
<path d="M0 0 C-0.78224743 4.3972938 -2.17154259 7.94559445 -4 12 C-5.175625 11.5875 -6.35125 11.175 -7.5625 10.75 C-9.37463405 10.16553084 -11.18718173 9.5823435 -13 9 C-14.0209375 8.64035156 -15.041875 8.28070313 -16.09375 7.91015625 C-32.72703522 2.6466955 -52.0379216 2.53625038 -68 10 C-70.88135388 11.7432191 -73.54488929 13.55008996 -76.1796875 15.64453125 C-78 17 -78 17 -80 17 C-80.495 18.485 -80.495 18.485 -81 20 C-81.66 20 -82.32 20 -83 20 C-83.26167969 20.56203125 -83.52335938 21.1240625 -83.79296875 21.703125 C-85.11409171 24.21710656 -86.68359987 26.42403175 -88.3125 28.75 C-99.73260583 46.44043534 -101.09565908 71.90360314 -96.92382812 92.04125977 C-93.07734995 107.03904893 -85.50315761 120.63023525 -72.125 128.9375 C-51.5883205 140.02782883 -27.92858201 135.88607782 -6 132 C-6 135.63 -6 139.26 -6 143 C-27.06216257 150.72279294 -54.31692871 151.77696545 -75.08203125 142.64453125 C-92.33301303 133.8420467 -102.38496599 119.88683393 -109.09765625 102.08984375 C-116.64727415 76.93709668 -114.36414362 48.2867072 -102.44140625 24.94921875 C-93.24082307 9.35014846 -78.41530415 -1.31316177 -61 -6 C-40.32357924 -10.67233404 -19.44725559 -7.91021811 0 0 Z " fill="#000000" transform="translate(1002,232)"/>
<path d="M0 0 C8.43795305 6.28237513 12.84925481 14.68253822 15.32421875 24.73046875 C16.41020553 37.77641379 14.7453294 48.499558 6.32421875 58.73046875 C-1.58297256 67.42210364 -11.34859412 71.9247981 -23.02734375 72.93359375 C-35.65541809 73.19396642 -46.46243422 69.43432287 -55.77734375 60.77734375 C-63.92264066 51.97349092 -67.23978202 41.859299 -66.984375 29.9453125 C-65.92762768 18.93641317 -61.6487564 9.19868544 -53.45703125 1.69921875 C-37.59904491 -10.45170585 -16.57478734 -10.5381301 0 0 Z M-35.42578125 2.98046875 C-39.1838301 8.24173713 -38.98334 14.87596879 -38.9765625 21.06640625 C-38.98084763 21.9451944 -38.98513275 22.82398254 -38.98954773 23.72940063 C-38.99526499 25.58000837 -38.9958106 27.43063856 -38.99145508 29.28125 C-38.98829836 32.09023976 -39.01177553 34.8981716 -39.03710938 37.70703125 C-39.03938319 39.5143216 -39.04008548 41.32161476 -39.0390625 43.12890625 C-39.04827225 43.95732025 -39.05748199 44.78573425 -39.06697083 45.63925171 C-39.01881654 51.80525816 -38.35685677 58.52623189 -34.25923157 63.4234314 C-30.93138238 66.17035888 -27.08750493 66.12793421 -22.96484375 66.07421875 C-18.93118851 65.46848213 -17.37836004 63.76263032 -14.67578125 60.73046875 C-12.32646924 55.46298458 -12.36931045 50.45896052 -12.375 44.80078125 C-12.37071487 43.85161835 -12.36642975 42.90245544 -12.36201477 41.92453003 C-12.35628838 39.92251379 -12.35575871 37.92047674 -12.36010742 35.91845703 C-12.36326375 32.87235617 -12.33979939 29.82723073 -12.31445312 26.78125 C-12.31217944 24.8294283 -12.31147696 22.87760401 -12.3125 20.92578125 C-12.30329025 20.02344757 -12.29408051 19.12111389 -12.28459167 18.19143677 C-12.33057558 11.83554613 -13.01621131 5.78404905 -17.36328125 0.79296875 C-24.48560139 -2.47944861 -29.22257728 -1.45039123 -35.42578125 2.98046875 Z " fill="#BB0000" transform="translate(1043.67578125,53.26953125)"/>
<path d="M0 0 C3.96 0 7.92 0 12 0 C12.00808685 0.99478867 12.01617371 1.98957733 12.02450562 3.01451111 C12.10218106 12.41543465 12.18997344 21.81621726 12.28752708 31.21695614 C12.33735229 36.04931232 12.38368302 40.88164809 12.421875 45.71411133 C12.45890248 50.38263793 12.50530864 55.05098783 12.55806351 59.71936226 C12.57651506 61.49539637 12.59165665 63.27146823 12.60334396 65.04755974 C12.6203657 67.54612989 12.64943681 70.04430343 12.68115234 72.54272461 C12.68331253 73.26777695 12.68547272 73.99282928 12.68769836 74.73985291 C12.83625071 83.97381823 14.46668683 91.46668683 21.1875 98.1875 C30.65534424 104.28899962 41.83513908 104.29151999 52.640625 102.34375 C60.56181552 100.2068707 66.72641943 96.99393071 71.30078125 90.015625 C77.80776715 77.80615328 77.15507523 63.94773749 77.31640625 50.48828125 C77.33703023 49.02426134 77.35802789 47.56024666 77.37937927 46.09623718 C77.43403894 42.28073409 77.48369064 38.46518241 77.53222656 34.64959717 C77.58285678 30.74096456 77.63832398 26.83240075 77.69335938 22.92382812 C77.80025248 15.28260923 77.90139604 7.64133118 78 0 C81.96 0 85.92 0 90 0 C90 37.29 90 74.58 90 113 C86.37 113 82.74 113 79 113 C78.34 108.71 77.68 104.42 77 100 C76.34 100.886875 75.68 101.77375 75 102.6875 C68.36889455 110.51588837 58.40570518 114.35443018 48.33935547 115.23193359 C26.16217126 116.41327579 26.16217126 116.41327579 17 111 C16.19691406 110.53722656 15.39382813 110.07445312 14.56640625 109.59765625 C6.06047087 103.88513151 2.5162593 95.13933209 0.41862869 85.42257881 C-0.22125487 81.71961152 -0.26329934 78.10849585 -0.22705078 74.35913086 C-0.22734283 73.54827026 -0.22763489 72.73740967 -0.22793579 71.90197754 C-0.22655679 69.25615245 -0.21106392 66.61061885 -0.1953125 63.96484375 C-0.19157727 62.11682794 -0.18873271 60.26881013 -0.18673706 58.42079163 C-0.17914073 53.58259509 -0.15952703 48.74452071 -0.1373291 43.90637207 C-0.11678405 38.95908256 -0.10771691 34.0117731 -0.09765625 29.06445312 C-0.07627701 19.37624873 -0.04218992 9.68813457 0 0 Z " fill="#000000" transform="translate(1426,265)"/>
<path d="M0 0 C0.89074219 -0.020625 1.78148438 -0.04125 2.69921875 -0.0625 C12.0538438 -0.11680842 21.52736506 1.97140241 28.75 8.25 C38.18001798 19.06232986 39.93415748 30.64685117 39.86352539 44.52368164 C39.86367142 45.29552795 39.86381744 46.06737427 39.8639679 46.86260986 C39.86327898 49.37848866 39.85553513 51.89429061 39.84765625 54.41015625 C39.84578843 56.16849222 39.84436625 57.92682872 39.84336853 59.68516541 C39.83957198 64.28658515 39.8297665 68.88797274 39.81866455 73.48937988 C39.80838853 78.19538946 39.80385771 82.90140429 39.79882812 87.60742188 C39.78814136 96.82162862 39.77109977 106.03581162 39.75 115.25 C35.79 115.25 31.83 115.25 27.75 115.25 C27.74191315 114.29723679 27.73382629 113.34447357 27.72549438 112.36283875 C27.64771233 103.34515495 27.55989464 94.3276161 27.46247292 85.31012249 C27.4127146 80.67512134 27.36638424 76.04014076 27.328125 71.4050293 C27.29101182 66.92452237 27.2445845 62.44419656 27.19193649 57.96384621 C27.17352984 56.26203428 27.15837233 54.56018374 27.14665604 52.85831261 C27.52584283 34.38515011 27.52584283 34.38515011 19.75 18.25 C13.30273933 13.03732116 7.03789291 11.87854029 -1 11.9375 C-1.79913818 11.94313965 -2.59827637 11.9487793 -3.42163086 11.95458984 C-13.27008727 12.1567429 -21.80394629 14.46614475 -29.25 21.25 C-38.01426561 32.98556541 -37.41088698 47.40212697 -37.56640625 61.34375 C-37.58700886 62.90173858 -37.60800613 64.45972199 -37.62937927 66.0177002 C-37.68425879 70.09464293 -37.73381678 74.17163322 -37.78222656 78.24865723 C-37.83269265 82.41841809 -37.88824692 86.58811092 -37.94335938 90.7578125 C-38.05052284 98.92181727 -38.1520585 107.08587941 -38.25 115.25 C-42.21 115.25 -46.17 115.25 -50.25 115.25 C-50.25 77.96 -50.25 40.67 -50.25 2.25 C-46.62 2.25 -42.99 2.25 -39.25 2.25 C-38.59 6.21 -37.93 10.17 -37.25 14.25 C-36.0125 13.033125 -34.775 11.81625 -33.5 10.5625 C-23.71063288 1.84022029 -12.64803675 0.07196607 0 0 Z " fill="#000000" transform="translate(2254.25,262.75)"/>
<path d="M0 0 C12.21 0 24.42 0 37 0 C37 37.29 37 74.58 37 113 C40.96 113 44.92 113 49 113 C49 115.31 49 117.62 49 120 C32.83 120 16.66 120 0 120 C0 117.69 0 115.38 0 113 C3.96 113 7.92 113 12 113 C12 77.69 12 42.38 12 6 C8.04 6 4.08 6 0 6 C0 4.02 0 2.04 0 0 Z " fill="#BB0000" transform="translate(931,4)"/>
<path d="M0 0 C11.88 0 23.76 0 36 0 C36 37.29 36 74.58 36 113 C39.96 113 43.92 113 48 113 C48 115.31 48 117.62 48 120 C32.16 120 16.32 120 0 120 C0 117.69 0 115.38 0 113 C3.63 113 7.26 113 11 113 C11 77.69 11 42.38 11 6 C7.37 6 3.74 6 0 6 C0 4.02 0 2.04 0 0 Z " fill="#BB0000" transform="translate(882,4)"/>
<path d="M0 0 C6.19487125 5.0231618 10.99371544 12.31311806 13.375 19.9375 C13.87 24.8875 13.87 24.8875 14.375 29.9375 C-1.135 29.9375 -16.645 29.9375 -32.625 29.9375 C-32.89249823 46.53789835 -32.89249823 46.53789835 -26.625 61.9375 C-21.68033647 64.99961694 -16.74676655 65.40193459 -11.078125 64.55859375 C-4.59018923 62.91594759 -0.84164668 59.76122934 2.6875 54.125 C5.03853313 49.85214143 6.83424849 45.55975453 8.375 40.9375 C10.355 40.9375 12.335 40.9375 14.375 40.9375 C13.96624646 49.93007794 9.61023779 58.28572302 3.125 64.4375 C-4.43950862 70.52199607 -12.93442188 73.22923206 -22.625 72.9375 C-34.29154493 71.6722925 -43.93012217 67.76121499 -51.5625 58.625 C-58.49112008 48.9216088 -60.52083218 38.66010393 -59.625 26.9375 C-57.36413343 15.11561937 -51.66327537 4.83203902 -41.625 -2.0625 C-27.72255729 -10.68372731 -13.14270766 -9.25761671 0 0 Z M-30.625 2.9375 C-32.55123005 7.50731473 -32.84303465 11.38166354 -32.75 16.3125 C-32.70875 18.49875 -32.6675 20.685 -32.625 22.9375 C-26.355 22.9375 -20.085 22.9375 -13.625 22.9375 C-13.5425 20.070625 -13.46 17.20375 -13.375 14.25 C-13.32037598 12.90869019 -13.32037598 12.90869019 -13.26464844 11.5402832 C-13.20833306 7.49057155 -13.31258427 5.43646148 -15.515625 1.91796875 C-18.02790553 -0.44078352 -19.01166321 -0.99435147 -22.4375 -1.375 C-26.4526831 -0.9813546 -27.86707971 0.02636192 -30.625 2.9375 Z " fill="#BB0000" transform="translate(1567.625,53.0625)"/>
<path d="M0 0 C8.40087403 6.09558368 15.25926015 14.28480773 17.6953125 24.55859375 C17.6953125 27.19859375 17.6953125 29.83859375 17.6953125 32.55859375 C2.5153125 32.55859375 -12.6646875 32.55859375 -28.3046875 32.55859375 C-28.2221875 36.16796875 -28.1396875 39.77734375 -28.0546875 43.49609375 C-28.03889648 44.61491943 -28.02310547 45.73374512 -28.00683594 46.88647461 C-27.7896819 53.35137902 -26.96535419 59.07679137 -23.3046875 64.55859375 C-18.55726886 67.57137866 -13.83804072 68.42286975 -8.3046875 67.55859375 C-1.81801183 65.95955277 2.64696284 63.60995734 6.37890625 57.99609375 C8.88711604 53.35181212 10.83678565 48.49273583 12.6953125 43.55859375 C14.6753125 43.55859375 16.6553125 43.55859375 18.6953125 43.55859375 C16.65078562 54.1578515 13.2187405 62.42654933 4.6171875 69.27734375 C-0.52661553 72.70654577 -6.11934581 75.0536679 -12.3046875 75.55859375 C-13.00851562 75.62175781 -13.71234375 75.68492188 -14.4375 75.75 C-24.32682823 76.24287649 -34.30798164 73.23232886 -42.30859375 67.375 C-49.97115793 60.40221655 -54.92509835 50.79998046 -55.68359375 40.46875 C-56.21131553 27.87238304 -53.41556469 17.46772546 -45.3046875 7.55859375 C-33.77500313 -4.75111155 -14.87574147 -9.3036417 0 0 Z M-25.3046875 4.55859375 C-28.85407765 9.02068423 -28.66822593 12.94402122 -28.4921875 18.37109375 C-28.4303125 21.07296875 -28.3684375 23.77484375 -28.3046875 26.55859375 C-22.0346875 26.55859375 -15.7646875 26.55859375 -9.3046875 26.55859375 C-9.2428125 23.87734375 -9.1809375 21.19609375 -9.1171875 18.43359375 C-9.08987549 17.60069824 -9.06256348 16.76780273 -9.03442383 15.90966797 C-8.98048151 11.04789921 -9.6236876 7.77531203 -12.3046875 3.55859375 C-16.9550676 0.258324 -20.95394214 1.32342413 -25.3046875 4.55859375 Z " fill="#BB0000" transform="translate(865.3046875,50.44140625)"/>
<path d="M0 0 C7.53026556 6.25078681 12.6670919 14.15925694 14.3125 23.875 C14.3125 25.855 14.3125 27.835 14.3125 29.875 C-1.1975 29.875 -16.7075 29.875 -32.6875 29.875 C-32.72188603 46.69573234 -32.72188603 46.69573234 -25.75 62.8125 C-20.70179014 65.41309296 -15.0049666 65.8005251 -9.53125 64.2734375 C-7.54678023 63.54036844 -5.61870329 62.73760414 -3.6875 61.875 C-2.90375 61.565625 -2.12 61.25625 -1.3125 60.9375 C2.18269807 58.65217819 3.33047005 53.53320349 4.875 49.8125 C5.52662109 48.24822266 5.52662109 48.24822266 6.19140625 46.65234375 C6.95929605 44.75001048 7.66376842 42.82119474 8.3125 40.875 C10.2925 40.875 12.2725 40.875 14.3125 40.875 C15.3125 42.875 15.3125 42.875 14.74609375 45.16015625 C11.13554918 55.22720406 6.77442525 63.35406425 -2.6875 68.875 C-13.76965224 74.09856529 -24.0933587 74.00082968 -35.57421875 70.12890625 C-44.91067729 66.36855093 -51.79427318 60.28582781 -55.97265625 51.02734375 C-60.42925243 39.15906074 -60.87416264 28.96102612 -56.6875 16.875 C-51.66320979 6.02816787 -43.91163752 -1.85872913 -32.6875 -6.125 C-20.64529784 -9.16477919 -10.00156896 -7.13434008 0 0 Z M-29.6875 1.875 C-33.98680098 7.89402138 -32.77402508 16.86646851 -32.6875 23.875 C-26.0875 23.875 -19.4875 23.875 -12.6875 23.875 C-11.89537763 12.36739517 -11.89537763 12.36739517 -15.6875 1.875 C-20.70775797 -2.11546146 -24.59676217 -1.87606998 -29.6875 1.875 Z " fill="#BB0000" transform="translate(625.6875,53.125)"/>
<path d="M0 0 C7.53026556 6.25078681 12.6670919 14.15925694 14.3125 23.875 C14.3125 25.855 14.3125 27.835 14.3125 29.875 C-1.1975 29.875 -16.7075 29.875 -32.6875 29.875 C-32.78077533 46.17150551 -32.78077533 46.17150551 -25.92578125 62.53125 C-19.37942294 65.39943133 -14.22089598 65.94955966 -7.4375 63.5 C-6.18217388 62.97079389 -4.93137137 62.43059588 -3.6875 61.875 C-2.90375 61.565625 -2.12 61.25625 -1.3125 60.9375 C2.18269807 58.65217819 3.33047005 53.53320349 4.875 49.8125 C5.52662109 48.24822266 5.52662109 48.24822266 6.19140625 46.65234375 C6.95929605 44.75001048 7.66376842 42.82119474 8.3125 40.875 C10.2925 40.875 12.2725 40.875 14.3125 40.875 C15.3125 42.875 15.3125 42.875 14.74609375 45.16015625 C11.13554918 55.22720406 6.77442525 63.35406425 -2.6875 68.875 C-13.93640648 74.17716479 -24.13321443 73.89309519 -35.765625 70.015625 C-39.26801796 68.64838069 -41.75796758 67.21862594 -44.6875 64.875 C-45.5125 64.318125 -46.3375 63.76125 -47.1875 63.1875 C-55.91862969 55.11120504 -59.10996757 44.8764956 -59.74609375 33.27734375 C-59.53756798 21.16894759 -55.0705665 11.36921443 -46.9375 2.5625 C-33.60880086 -10.07546041 -14.64551378 -10.44696851 0 0 Z M-29.6875 1.875 C-32.96896781 8.67232617 -32.97226237 15.4711783 -32.6875 22.875 C-26.0875 23.205 -19.4875 23.535 -12.6875 23.875 C-12.625625 21.379375 -12.56375 18.88375 -12.5 16.3125 C-12.47268799 15.54091553 -12.44537598 14.76933105 -12.41723633 13.97436523 C-12.35684726 8.87895606 -13.27270894 5.38260998 -15.6875 0.875 C-20.6739113 -2.0657041 -25.30006361 -1.94994455 -29.6875 1.875 Z " fill="#BB0000" transform="translate(422.6875,53.125)"/>
<path d="M0 0 C3.24678344 2.93002408 5.25991484 5.00528817 5.84375 9.45703125 C6.03269242 14.20420962 5.760794 17.58115701 2.5625 21.3125 C-1.59346729 24.97370928 -4.86040993 25.95779262 -10.25390625 25.703125 C-14.42829316 24.95636527 -17.23337927 22.8450173 -19.8125 19.5625 C-20.77065962 16.11312538 -20.55658512 12.88505374 -20.4375 9.3125 C-27.69695426 17.57325829 -28.56686466 25.943168 -28.75390625 36.42578125 C-28.77468735 37.39533249 -28.79546844 38.36488373 -28.81687927 39.36381531 C-28.88208941 42.45080707 -28.9411268 45.53788152 -29 48.625 C-29.04321237 50.72201364 -29.08682752 52.81901903 -29.13085938 54.91601562 C-29.23774151 60.04809307 -29.33908896 65.18025341 -29.4375 70.3125 C-24.4875 70.3125 -19.5375 70.3125 -14.4375 70.3125 C-14.4375 72.6225 -14.4375 74.9325 -14.4375 77.3125 C-31.5975 77.3125 -48.7575 77.3125 -66.4375 77.3125 C-66.4375 71.3125 -66.4375 71.3125 -65.4375 70.3125 C-61.8075 70.3125 -58.1775 70.3125 -54.4375 70.3125 C-54.4375 49.8525 -54.4375 29.3925 -54.4375 8.3125 C-58.3975 8.3125 -62.3575 8.3125 -66.4375 8.3125 C-66.4375 6.0025 -66.4375 3.6925 -66.4375 1.3125 C-54.5575 1.3125 -42.6775 1.3125 -30.4375 1.3125 C-29.7775 3.6225 -29.1175 5.9325 -28.4375 8.3125 C-27.695 7.549375 -26.9525 6.78625 -26.1875 6 C-18.95631698 -1.06683795 -9.64085326 -4.73278251 0 0 Z M-30.4375 9.3125 C-29.4375 11.3125 -29.4375 11.3125 -29.4375 11.3125 Z " fill="#BB0000" transform="translate(258.4375,46.6875)"/>
<path d="M0 0 C3.27277727 2.55084111 5.32637775 4.93503428 6.15625 8.9921875 C6.30055451 13.8534458 5.61948915 17.19599521 3.15625 21.4296875 C-0.67055338 24.69841539 -3.82020519 25.87155349 -8.84375 25.9921875 C-14.02163061 24.54917159 -17.13813138 22.67498895 -19.84375 17.9921875 C-20.4365052 15.28962565 -20.65554834 12.768162 -20.84375 9.9921875 C-29.02169284 18.7341264 -28.91914987 30.86689538 -29.16015625 42.18359375 C-29.18093735 43.01430893 -29.20171844 43.84502411 -29.22312927 44.70091248 C-29.28779482 47.31876465 -29.34711792 49.9367051 -29.40625 52.5546875 C-29.44951445 54.34440967 -29.49313106 56.13412336 -29.53710938 57.92382812 C-29.64404298 62.27985941 -29.74372938 66.63597024 -29.84375 70.9921875 C-24.56375 70.9921875 -19.28375 70.9921875 -13.84375 70.9921875 C-13.84375 72.9721875 -13.84375 74.9521875 -13.84375 76.9921875 C-31.00375 76.9921875 -48.16375 76.9921875 -65.84375 76.9921875 C-65.84375 75.0121875 -65.84375 73.0321875 -65.84375 70.9921875 C-62.21375 70.9921875 -58.58375 70.9921875 -54.84375 70.9921875 C-54.84375 50.2021875 -54.84375 29.4121875 -54.84375 7.9921875 C-58.47375 7.9921875 -62.10375 7.9921875 -65.84375 7.9921875 C-65.84375 5.6821875 -65.84375 3.3721875 -65.84375 0.9921875 C-53.96375 0.9921875 -42.08375 0.9921875 -29.84375 0.9921875 C-29.34875 4.9521875 -29.34875 4.9521875 -28.84375 8.9921875 C-28.369375 8.2703125 -27.895 7.5484375 -27.40625 6.8046875 C-20.777743 -0.47050311 -9.32511385 -5.09720206 0 0 Z " fill="#BB0000" transform="translate(1647.84375,46.0078125)"/>
<path d="M0 0 C1.35448242 -0.01160156 1.35448242 -0.01160156 2.73632812 -0.0234375 C8.34897889 -0.00718073 13.17715991 0.66274187 18.5625 2.25 C17.6875 9.875 17.6875 9.875 16.5625 13.25 C15.41910156 13.09144531 14.27570313 12.93289062 13.09765625 12.76953125 C8.72511217 12.22765533 4.4035079 11.99727613 0 11.9375 C-1.07411133 11.89399414 -1.07411133 11.89399414 -2.16992188 11.84960938 C-7.71431913 11.78402506 -10.90719544 13.01811815 -15.4375 16.25 C-17.01613177 18.1174034 -17.01613177 18.1174034 -17.8125 20.1875 C-18.10898437 20.83589844 -18.40546875 21.48429687 -18.7109375 22.15234375 C-20.62471907 27.67761635 -20.73633016 33.27309884 -21 39.0625 C-21.144375 42.094375 -21.28875 45.12625 -21.4375 48.25 C-8.5675 48.745 -8.5675 48.745 4.5625 49.25 C4.5625 52.88 4.5625 56.51 4.5625 60.25 C-4.0175 60.25 -12.5975 60.25 -21.4375 60.25 C-21.4375 93.91 -21.4375 127.57 -21.4375 162.25 C-25.3975 162.25 -29.3575 162.25 -33.4375 162.25 C-33.4375 128.59 -33.4375 94.93 -33.4375 60.25 C-40.3675 60.25 -47.2975 60.25 -54.4375 60.25 C-54.4375 57.61 -54.4375 54.97 -54.4375 52.25 C-47.59767096 49.97005699 -40.56704067 49.17951016 -33.4375 48.25 C-33.47230469 46.94546875 -33.50710938 45.6409375 -33.54296875 44.296875 C-33.80055589 30.71110475 -33.87493749 18.03564285 -24.4375 7.25 C-17.28002676 0.53678372 -9.41688717 -0.0803146 0 0 Z " fill="#000000" transform="translate(824.4375,215.75)"/>
<path d="M0 0 C2.93627077 0.75390736 5.58138801 0.91284776 8.6015625 0.66796875 C8.9315625 -0.32203125 9.2615625 -1.31203125 9.6015625 -2.33203125 C11.5815625 -2.33203125 13.5615625 -2.33203125 15.6015625 -2.33203125 C15.6015625 6.24796875 15.6015625 14.82796875 15.6015625 23.66796875 C13.6215625 23.66796875 11.6415625 23.66796875 9.6015625 23.66796875 C8.9828125 22.34732422 8.9828125 22.34732422 8.3515625 21 C4.2076164 12.29175662 4.2076164 12.29175662 -3.08984375 6.3359375 C-9.13572321 4.58662212 -15.09156235 4.91226827 -21.0234375 6.85546875 C-23.8477583 9.01087146 -24.67209588 10.19766988 -25.3984375 13.66796875 C-25.73394597 16.82169284 -25.73394597 16.82169284 -24.3984375 19.66796875 C-17.5431759 22.79327702 -10.47149023 23.89043467 -3.08789062 25.12890625 C5.09430647 26.57666266 11.54838471 28.61479096 17.6015625 34.66796875 C22.08102679 41.68579614 21.71337706 50.57040386 19.98046875 58.515625 C17.24155591 66.39152104 11.81740566 72.25832044 4.4765625 76.16796875 C-4.18004212 79.53193428 -13.70711821 78.34412553 -22.265625 75.3359375 C-25.02220084 74.4726143 -27.53345208 74.44178569 -30.3984375 74.66796875 C-30.7284375 75.65796875 -31.0584375 76.64796875 -31.3984375 77.66796875 C-33.3784375 77.66796875 -35.3584375 77.66796875 -37.3984375 77.66796875 C-37.3984375 67.76796875 -37.3984375 57.86796875 -37.3984375 47.66796875 C-35.4184375 47.66796875 -33.4384375 47.66796875 -31.3984375 47.66796875 C-30.9859375 48.59738281 -30.5734375 49.52679688 -30.1484375 50.484375 C-26.72596797 57.91209683 -23.54690983 64.14578299 -16.3984375 68.66796875 C-10.92059518 70.49391619 -3.70435688 70.93393788 1.75390625 68.84375 C3.96696615 67.38821672 5.41218641 66.04672092 6.6015625 63.66796875 C6.67106791 62.12772879 6.68608607 60.58461887 6.6640625 59.04296875 C6.65503906 58.22570312 6.64601563 57.4084375 6.63671875 56.56640625 C6.62511719 55.93992188 6.61351562 55.3134375 6.6015625 54.66796875 C1.13952861 52.02481294 -3.78173776 50.98760929 -9.7734375 50.23046875 C-16.48140393 49.27393149 -22.53446102 48.27230418 -28.3984375 44.66796875 C-29.3265625 44.11109375 -30.2546875 43.55421875 -31.2109375 42.98046875 C-36.27444516 37.6276178 -37.67570158 32.01190797 -37.9609375 24.73046875 C-37.66794044 15.95945994 -34.97643442 9.80534579 -28.6484375 3.73046875 C-19.58253352 -3.50859582 -10.68098298 -3.13367682 0 0 Z " fill="#BB0000" transform="translate(1693.3984375,47.33203125)"/>
<path d="M0 0 C-0.85714286 8.57142857 -0.85714286 8.57142857 -3 12 C-4.01835937 11.71125 -5.03671875 11.4225 -6.0859375 11.125 C-22.33501797 6.76293493 -37.14875546 5.51535676 -52.3125 13.8125 C-62.31662411 21.95539172 -66.55438632 32.30588633 -68 45 C-69.19271224 61.43180111 -68.09137519 77.44625512 -57.4375 90.6875 C-51.09531428 97.56413957 -42.71451338 100.66798358 -33.50390625 101.203125 C-25.3058877 101.30062373 -18.07930468 100.71902146 -10.0859375 98.75390625 C-7.06917418 98.01689952 -4.06784359 97.47445629 -1 97 C-1 100.63 -1 104.26 -1 108 C-15.15301143 114.62481386 -33.40860418 115.64356213 -48.4375 111.375 C-56.13478565 108.47442498 -62.49793868 104.11340147 -68 98 C-68.825 97.113125 -69.65 96.22625 -70.5 95.3125 C-81.39970847 81.87638138 -83.03118458 63.64217336 -82 47 C-80.25462524 30.73892516 -74.97613777 16.57956145 -62.3125 5.625 C-44.45447296 -7.83763029 -20.29981936 -6.03071557 0 0 Z " fill="#000000" transform="translate(2398,267)"/>
<path d="M0 0 C-1 8.57142857 -1 8.57142857 -2 12 C-3.09054688 11.71125 -4.18109375 11.4225 -5.3046875 11.125 C-21.87463111 6.95608749 -36.86858196 5.36205428 -52.3125 13.8125 C-61.92153774 21.63380979 -66.24137563 31.90530974 -68 44 C-68.27497265 47.44372077 -68.33497252 50.85879466 -68.3125 54.3125 C-68.30404053 55.68607666 -68.30404053 55.68607666 -68.29541016 57.08740234 C-68.05039241 70.83993284 -64.96195362 83.46822686 -54.9375 93.4375 C-45.28125014 101.27515614 -32.96262767 102.21059102 -21 101 C-17.31284899 100.38976364 -13.71440609 99.64594069 -10.0859375 98.75390625 C-7.06917418 98.01689952 -4.06784359 97.47445629 -1 97 C-1 100.63 -1 104.26 -1 108 C-15.15301143 114.62481386 -33.40860418 115.64356213 -48.4375 111.375 C-56.13478565 108.47442498 -62.49793868 104.11340147 -68 98 C-68.825 97.113125 -69.65 96.22625 -70.5 95.3125 C-81.52660667 81.71995341 -83.12775394 63.19043854 -81.69140625 46.390625 C-79.84544334 30.38138914 -75.14362044 16.27651082 -62.37890625 5.71484375 C-58.46204209 2.89135711 -54.47193663 0.80518543 -50 -1 C-49.23945313 -1.3196875 -48.47890625 -1.639375 -47.6953125 -1.96875 C-32.55047543 -7.19444458 -14.96812042 -4.44676257 0 0 Z " fill="#000000" transform="translate(189,267)"/>
<path d="M0 0 C-0.99 3.63 -1.98 7.26 -3 11 C-4.01835938 10.71125 -5.03671875 10.4225 -6.0859375 10.125 C-21.77576491 5.91256336 -37.84634551 4.06582193 -52.51953125 12.4375 C-61.47306405 18.61439825 -65.7949698 28.60015607 -68 39 C-68.52459753 42.33273726 -68.82587225 45.6317163 -69 49 C-69.04125 49.70511719 -69.0825 50.41023438 -69.125 51.13671875 C-69.53324817 64.94060992 -66.65368828 79.31646433 -57.79296875 90.25 C-50.09642107 97.76209882 -40.52299324 100.39492284 -30 100.375 C-28.91392456 100.37693359 -28.91392456 100.37693359 -27.8059082 100.37890625 C-21.00554097 100.24933338 -14.79432487 98.76645672 -8.29296875 96.875 C-5 96 -5 96 -1 96 C-0.71473672 99.37878509 -0.59615092 102.62731441 -1 106 C-5.71038022 111.03523403 -16.24362739 112.14949835 -22.8671875 112.43359375 C-24.86965605 112.45693561 -26.87249836 112.45780542 -28.875 112.4375 C-29.9263916 112.42992676 -30.9777832 112.42235352 -32.06103516 112.41455078 C-45.72468885 112.12509345 -57.56145901 108.20443214 -67.75 98.75 C-81.8491769 83.58923802 -82.62733732 64.44368402 -82.13183594 44.85302734 C-81.42299175 29.51311415 -75.23186885 16.44825009 -64 6 C-47.22871533 -7.65241419 -19.28208921 -9.6410446 0 0 Z " fill="#000000" transform="translate(2026,268)"/>
<path d="M0 0 C0.76166977 0.00222061 1.52333954 0.00444122 2.30809021 0.00672913 C3.16890701 0.00680466 4.02972382 0.00688019 4.91662598 0.00695801 C5.8520372 0.01211929 6.78744843 0.01728058 7.75120544 0.02259827 C8.70422043 0.02401321 9.65723541 0.02542816 10.63912964 0.02688599 C13.69605085 0.032503 16.75289996 0.04505836 19.80979919 0.05775452 C21.87685543 0.06276733 23.94391281 0.06733061 26.01097107 0.07142639 C31.08977507 0.08247795 36.16852489 0.09975397 41.24729919 0.12025452 C41.24729919 2.43025452 41.24729919 4.74025452 41.24729919 7.12025452 C38.60729919 7.12025452 35.96729919 7.12025452 33.24729919 7.12025452 C38.52729919 19.00025452 43.80729919 30.88025452 49.24729919 43.12025452 C52.34114443 36.93256404 55.34820328 30.86258818 57.99729919 24.49525452 C58.30022888 23.79658264 58.60315857 23.09791077 58.91526794 22.37806702 C60.91165968 17.58672685 61.80542605 13.29482157 62.24729919 8.12025452 C58.94729919 7.79025452 55.64729919 7.46025452 52.24729919 7.12025452 C52.20475563 5.12070706 52.20649137 3.11983815 52.24729919 1.12025452 C53.24729919 0.12025452 53.24729919 0.12025452 55.83934021 0.00672913 C56.96525574 0.01196594 58.09117126 0.01720276 59.25120544 0.02259827 C60.46614685 0.02582092 61.68108826 0.02904358 62.93284607 0.03236389 C64.2122406 0.0407428 65.49163513 0.0491217 66.80979919 0.05775452 C68.09306091 0.06226624 69.37632263 0.06677795 70.69847107 0.07142639 C73.88145942 0.08325906 77.06435682 0.09974383 80.24729919 0.12025452 C80.24729919 2.43025452 80.24729919 4.74025452 80.24729919 7.12025452 C79.1726239 7.47249084 78.09794861 7.82472717 76.9907074 8.18763733 C72.72728044 10.03253431 71.16465152 12.90924013 69.35276794 17.04212952 C69.02495834 17.74223145 68.69714874 18.44233337 68.35940552 19.16365051 C67.29233953 21.47033094 66.26582218 23.79176104 65.24729919 26.12025452 C64.89524414 26.91681458 64.54318909 27.71337463 64.1804657 28.53407288 C61.57510567 34.45238521 59.06041973 40.4071077 56.55979919 46.37025452 C55.82004016 48.12305937 55.07980739 49.87566437 54.33909607 51.62806702 C50.61486731 60.44750955 46.91799079 69.27839367 43.24729919 78.12025452 C40.93729919 78.12025452 38.62729919 78.12025452 36.24729919 78.12025452 C29.86231631 63.83892657 23.53013665 49.53654129 17.30979919 35.18275452 C17.04148285 34.56430664 16.7731665 33.94585876 16.49671936 33.30867004 C14.73674666 29.25018772 12.98786659 25.18709467 11.24729919 21.12025452 C10.75600525 19.97411682 10.2647113 18.82797913 9.75852966 17.64710999 C9.29978455 16.56445862 8.84103943 15.48180725 8.36839294 14.36634827 C7.95903503 13.40269348 7.54967712 12.4390387 7.12791443 11.44618225 C6.24729919 9.12025452 6.24729919 9.12025452 6.24729919 7.12025452 C3.27729919 7.12025452 0.30729919 7.12025452 -2.75270081 7.12025452 C-2.79524437 5.12070706 -2.79350863 3.11983815 -2.75270081 1.12025452 C-1.75270081 0.12025452 -1.75270081 0.12025452 0 0 Z " fill="#BB0000" transform="translate(1432.752700805664,46.87974548339844)"/>
<path d="M0 0 C2.31 0 4.62 0 7 0 C7 8.91 7 17.82 7 27 C17.89 27 28.78 27 40 27 C40 30.63 40 34.26 40 38 C29.11 38 18.22 38 7 38 C7.06189275 51.41719742 7.06189275 51.41719742 7.16015625 64.83398438 C7.20834066 70.31339744 7.25244158 75.79261282 7.27099609 81.2722168 C7.28624049 85.69450754 7.32082221 90.11627794 7.36830902 94.5383358 C7.3830431 96.21780539 7.39103639 97.89734931 7.39188385 99.57688332 C7.2834201 113.30263195 7.2834201 113.30263195 12 126 C15.99517669 129.5287019 19.31691687 130.12530732 24.54296875 130.09765625 C26.15268555 130.09282227 26.15268555 130.09282227 27.79492188 130.08789062 C29.47424805 130.07532227 29.47424805 130.07532227 31.1875 130.0625 C32.31865234 130.05798828 33.44980469 130.05347656 34.61523438 130.04882812 C37.41020927 130.03703498 40.2050782 130.0205765 43 130 C43 132.97 43 135.94 43 139 C36.8235785 141.69192012 31.77100411 142.49370224 25.0625 142.4375 C24.22009766 142.45748047 23.37769531 142.47746094 22.50976562 142.49804688 C14.99261564 142.49226 8.96099594 140.50039657 3.1875 135.625 C-3.12335589 128.05197294 -5.32248715 121.52075615 -5.22705078 111.67797852 C-5.22734283 110.87716354 -5.22763489 110.07634857 -5.22793579 109.25126648 C-5.22655205 106.62703284 -5.21103628 104.00308976 -5.1953125 101.37890625 C-5.19157897 99.55045222 -5.1887336 97.72199618 -5.18673706 95.89353943 C-5.17912741 91.09805711 -5.15950198 86.30269733 -5.1373291 81.50726318 C-5.11681304 76.60707252 -5.10772305 71.70686192 -5.09765625 66.80664062 C-5.07625343 57.20436478 -5.04109318 47.60221179 -5 38 C-10.61 38 -16.22 38 -22 38 C-22 35.36 -22 32.72 -22 30 C-20.64652311 29.53963371 -19.292173 29.08183463 -17.9375 28.625 C-17.18339844 28.36976563 -16.42929688 28.11453125 -15.65234375 27.8515625 C-12.4553284 26.82512753 -9.23190411 25.90983837 -6 25 C-5.85377197 24.31373535 -5.70754395 23.6274707 -5.55688477 22.92041016 C-4.89489743 19.82133259 -4.22875197 16.72316341 -3.5625 13.625 C-3.33240234 12.54476562 -3.10230469 11.46453125 -2.86523438 10.3515625 C-2.64287109 9.3203125 -2.42050781 8.2890625 -2.19140625 7.2265625 C-1.88505249 5.79691162 -1.88505249 5.79691162 -1.57250977 4.33837891 C-1 2 -1 2 0 0 Z " fill="#000000" transform="translate(1554,238)"/>
<path d="M0 0 C12.21 0 24.42 0 37 0 C37 23.1 37 46.2 37 70 C40.63 70 44.26 70 48 70 C49 71 49 71 49 76 C32.83 76 16.66 76 0 76 C0 74.02 0 72.04 0 70 C3.96 70 7.92 70 12 70 C12 49.21 12 28.42 12 7 C8.04 7 4.08 7 0 7 C0 4.69 0 2.38 0 0 Z " fill="#BB0000" transform="translate(1389,47)"/>
<path d="M0 0 C12.21 0 24.42 0 37 0 C37 23.1 37 46.2 37 70 C40.63 70 44.26 70 48 70 C48 71.98 48 73.96 48 76 C32.16 76 16.32 76 0 76 C0 74.02 0 72.04 0 70 C3.96 70 7.92 70 12 70 C12 49.21 12 28.42 12 7 C8.04 7 4.08 7 0 7 C0 4.69 0 2.38 0 0 Z " fill="#BB0000" transform="translate(1715,47)"/>
<path d="M0 0 C11.22 0 22.44 0 34 0 C34 22.77 34 45.54 34 69 C37.96 69 41.92 69 46 69 C46 70.98 46 72.96 46 75 C45 76 45 76 43.05747986 76.12025452 C42.20698563 76.11803391 41.35649139 76.11581329 40.48022461 76.11352539 C39.03884377 76.11341209 39.03884377 76.11341209 37.56834412 76.11329651 C36.523564 76.10813522 35.47878387 76.10297394 34.40234375 76.09765625 C33.33834854 76.0962413 32.27435333 76.09482635 31.17811584 76.09336853 C27.76454917 76.08775064 24.351047 76.07519511 20.9375 76.0625 C18.62955824 76.05748731 16.32161545 76.052924 14.01367188 76.04882812 C8.34242574 76.0377754 2.67121747 76.02101987 -3 76 C-3 73.69 -3 71.38 -3 69 C0.96 69 4.92 69 9 69 C9 48.21 9 27.42 9 6 C6.03 6 3.06 6 0 6 C0 4.02 0 2.04 0 0 Z " fill="#BB0000" transform="translate(522,48)"/>
<path d="M0 0 C-1 8.57142857 -1 8.57142857 -2 12 C-2.86625 11.835 -3.7325 11.67 -4.625 11.5 C-15.67865008 9.99472651 -24.72805253 10.17443782 -34.11328125 16.40234375 C-42.91221928 23.1796802 -46.52958946 33.32066344 -48 44 C-48.321067 49.42864762 -48.37234219 54.85294122 -48.4140625 60.2890625 C-48.43280791 61.84419747 -48.45238373 63.39932264 -48.4727478 64.95443726 C-48.5237193 69.01489433 -48.56353037 73.07538426 -48.60089111 77.13598633 C-48.64115219 81.29256074 -48.6921428 85.44900266 -48.7421875 89.60546875 C-48.83853162 97.73688809 -48.92306691 105.86837393 -49 114 C-52.96 114 -56.92 114 -61 114 C-61 76.71 -61 39.42 -61 1 C-57.37 1 -53.74 1 -50 1 C-49.67 6.61 -49.34 12.22 -49 18 C-48.175 16.824375 -47.35 15.64875 -46.5 14.4375 C-35.00473004 -0.73733068 -18.29950938 -4.6409065 0 0 Z " fill="#000000" transform="translate(1789,264)"/>
<path d="M0 0 C3.96 0 7.92 0 12 0 C12 53.13 12 106.26 12 161 C8.04 161 4.08 161 0 161 C0 107.87 0 54.74 0 0 Z " fill="#000000" transform="translate(567,217)"/>
<path d="M0 0 C3.96 0 7.92 0 12 0 C12 37.29 12 74.58 12 113 C8.04 113 4.08 113 0 113 C0 75.71 0 38.42 0 0 Z " fill="#000000" transform="translate(2045,265)"/>
<path d="M0 0 C3.25599404 2.44199553 4.94471469 3.77164407 6.25 7.6875 C6.69992774 13.76152456 5.6665311 16.86821372 1.75 21.4375 C-1.67741494 24.29367912 -5.51266759 23.97972982 -9.75 23.6875 C-12.93459646 22.16757896 -15.48579966 20.40454041 -17.75 17.6875 C-19.26149553 13.15301342 -19.52441645 9.31008684 -17.4375 4.9375 C-12.92128126 -1.08412499 -7.34764684 -3.50683144 0 0 Z " fill="#BB0000" transform="translate(549.75,14.3125)"/>
<path d="M0 0 C3.15689734 1.60714774 5.19415756 2.97438234 7.375 5.75 C8.83243811 10.99677719 8.72165056 14.65623688 6.1875 19.375 C3.80287467 22.23655039 2.23368101 23.83576383 -1.5234375 24.3359375 C-9.22742475 24.44147157 -9.22742475 24.44147157 -13.0625 22.25 C-16.52750824 18.22611946 -17.46320434 15.50196601 -17.3203125 10.03125 C-16.78643864 6.64570842 -15.19273902 4.55819552 -13 2 C-8.79680448 -0.56764245 -4.80111245 -0.68230714 0 0 Z " fill="#BB0000" transform="translate(1418,13)"/>
<path d="M0 0 C3.4275548 1.67894453 5.46244208 4.11186083 7.4375 7.375 C8.41842175 11.95263483 7.66436751 15.64106645 5.625 19.8125 C3.50074626 22.67207234 1.82490009 23.86549248 -1.70703125 24.44140625 C-9.68608139 24.75253902 -9.68608139 24.75253902 -13.12109375 22.78515625 C-16.32571383 19.51905665 -17.40588871 16.47762348 -17.6875 11.9375 C-17.38046454 6.77300613 -15.74061394 4.47342723 -12 1 C-8.26836358 -0.86581821 -4.06325499 -0.55464677 0 0 Z " fill="#BB0000" transform="translate(1744,13)"/>
<path d="M0 0 C3.11020387 3.08865511 3.45664521 5.6399562 3.5 9.9375 C3.38318768 14.09195555 3.17970289 15.71138627 0.9375 19.3125 C-2 21 -2 21 -5.625 21.1875 C-9 20 -9 20 -10.9375 17.4375 C-12.63574324 11.94318363 -12.77359478 7.93398695 -10.625 2.5625 C-7.70177221 -2.04720536 -5.0155115 -1.14388859 0 0 Z " fill="#000000" transform="translate(2055,225)"/>
</svg>
